<?xml version="1.0" encoding="UTF-8" standalone="no"?>
<!-- Created with Inkscape (http://www.inkscape.org/) -->

<svg
   width="42.998169mm"
   height="43.012047mm"
   viewBox="0 0 162.51276 162.56522"
   version="1.1"
   id="svg1"
   xml:space="preserve"
   inkscape:version="1.4.2 (f4327f4, 2025-05-13)"
   sodipodi:docname="Tipos.svg"
   xmlns:inkscape="http://www.inkscape.org/namespaces/inkscape"
   xmlns:sodipodi="http://sodipodi.sourceforge.net/DTD/sodipodi-0.dtd"
   xmlns="http://www.w3.org/2000/svg"
   xmlns:svg="http://www.w3.org/2000/svg"><sodipodi:namedview
     id="namedview1"
     pagecolor="#505050"
     bordercolor="#eeeeee"
     borderopacity="1"
     inkscape:showpageshadow="0"
     inkscape:pageopacity="0"
     inkscape:pagecheckerboard="0"
     inkscape:deskcolor="#505050"
     inkscape:document-units="mm"
     inkscape:zoom="0.63374008"
     inkscape:cx="606.71561"
     inkscape:cy="396.85039"
     inkscape:window-width="1366"
     inkscape:window-height="705"
     inkscape:window-x="-8"
     inkscape:window-y="-8"
     inkscape:window-maximized="1"
     inkscape:current-layer="layer1"><inkscape:page
       x="6.2823049e-13"
       y="0"
       width="162.51276"
       height="162.56522"
       id="page2"
       margin="0"
       bleed="0" /></sodipodi:namedview><defs
     id="defs1" /><g
     inkscape:label="Camada 1"
     inkscape:groupmode="layer"
     id="layer1"
     transform="translate(-240.73976,-468.83444)"><path
       d="m 321.43999,631.39771 c -6.62926,-0.048 -15.35319,-0.9737 -19.38652,-2.0565 -4.03334,-1.0828 -10.43118,-3.3863 -14.21743,-5.1188 -3.78625,-1.7324 -9.18625,-4.7043 -12,-6.6041 -2.81375,-1.8998 -8.60707,-6.9069 -12.87405,-11.1268 -5.27741,-5.2193 -9.43005,-11.0835 -12.98675,-18.3394 -2.87573,-5.8666 -6.13457,-14.2427 -7.24186,-18.6134 -1.10729,-4.3708 -2.00438,-13.0708 -1.99354,-19.3334 0.0108,-6.2626 0.90998,-15.1627 1.9981,-19.778 1.08812,-4.6154 4.22925,-12.9513 6.98029,-18.5244 3.42878,-6.946 7.81893,-12.98 13.95896,-19.1858 4.92638,-4.9792 12.72638,-11.1402 17.33333,-13.6911 4.60695,-2.5509 12.48948,-5.8911 17.51673,-7.4226 6.84073,-2.084 12.71133,-2.7806 23.33332,-2.7688 8.16498,0.01 17.30745,0.8436 21.52622,1.9648 4.03333,1.072 11.80554,4.158 17.27157,6.8579 6.999,3.4571 12.75417,7.7249 19.45961,14.4303 6.77153,6.7715 10.92504,12.3917 14.38151,19.4596 2.67306,5.4661 5.83539,13.8228 7.02739,18.5706 1.61851,6.4465 2.00884,12.5234 1.54154,24 -0.47677,11.709 -1.35241,17.2535 -3.67802,23.2888 -1.67876,4.3566 -5.05801,11.3434 -7.50946,15.5262 -2.45144,4.1827 -8.18519,11.2985 -12.74165,15.8127 -5.68146,5.6288 -11.65716,9.8582 -19.01849,13.4606 -5.9037,2.8891 -14.31006,6.1588 -18.6808,7.2661 -4.39155,1.1126 -13.33918,1.974 -20,1.9255 z m 2.86473,-29.6803 c 9.44048,-0.3562 12.27048,-1.0804 20.91291,-5.3517 6.57134,-3.2478 11.91557,-7.099 15.60197,-11.2434 3.08385,-3.4669 7.03886,-9.392 8.78892,-13.1668 1.75006,-3.7748 3.63218,-10.6748 4.18249,-15.3333 0.5503,-4.6585 0.58684,-11.3018 0.0812,-14.7628 -0.50566,-3.461 -2.50144,-9.761 -4.43507,-14 -1.93362,-4.239 -6.33598,-10.626 -9.78301,-14.1934 -3.44702,-3.5674 -9.82833,-8.1979 -14.18067,-10.29 -4.35234,-2.0922 -11.19019,-4.4842 -15.19524,-5.3156 -5.48311,-1.1383 -9.29217,-1.1251 -15.41999,0.053 -4.47594,0.8608 -11.26892,2.9796 -15.0955,4.7085 -3.82658,1.7288 -9.992,5.9818 -13.70093,9.4511 -4.14648,3.8785 -8.3885,9.6912 -11.01494,15.0932 -3.92649,8.0761 -4.27365,9.8622 -4.29907,22.1189 -0.0254,12.2424 0.31866,14.0643 4.20489,22.2676 2.32789,4.9138 6.92076,11.6225 10.20638,14.9081 3.28562,3.2856 8.58098,7.3141 11.76747,8.9521 3.18649,1.638 8.19362,3.7742 11.12696,4.7471 3.23018,1.0713 9.63869,1.6064 16.25125,1.3569 z m 1.08207,-9.5894 c -4.4,0.3528 -8.9,0.3051 -10,-0.1062 -1.1,-0.4112 -2.82664,-1.0106 -3.83699,-1.3321 -1.07706,-0.3428 1.45751,-2.7139 6.12676,-5.7318 4.38007,-2.831 9.17837,-6.8704 10.66289,-8.9765 1.48451,-2.1061 4.09203,-6.5293 5.79448,-9.8293 2.39638,-4.645 3.11316,-8.2581 3.17412,-16 0.0658,-8.3523 -0.53648,-11.2528 -3.65508,-17.6034 -2.18017,-4.4397 -6.53989,-10.1264 -10.47754,-13.6667 -3.70904,-3.3348 -7.50536,-6.0632 -8.43625,-6.0632 -0.93089,0 -2.41895,-0.8753 -3.30679,-1.9451 -1.33181,-1.6047 -0.99166,-2.1013 1.94406,-2.8381 1.95706,-0.4912 7.61976,-0.6025 12.58376,-0.2473 6.53508,0.4676 10.95909,1.6982 16.03322,4.4599 3.85428,2.0977 9.32453,6.446 12.15611,9.6629 2.83158,3.2168 6.36833,9.1096 7.85945,13.0949 1.49113,3.9854 2.71113,10.4148 2.71113,14.2875 0,3.8727 -0.9116,10.111 -2.02578,13.8629 -1.11418,3.7518 -4.38837,9.8104 -7.27598,13.4635 -3.66553,4.6373 -7.78274,7.8832 -13.64088,10.7543 -5.45634,2.6742 -11.18841,4.3367 -16.39069,4.7538 z"
       style="fill:#4b4b4b;fill-opacity:1"
       id="path1-0" /></g></svg>
