<?xml version="1.0" encoding="UTF-8" standalone="no"?>
<!-- Created with Inkscape (http://www.inkscape.org/) -->

<svg
   width="43.020542mm"
   height="43.005207mm"
   viewBox="0 0 162.59733 162.53937"
   version="1.1"
   id="svg1"
   xml:space="preserve"
   inkscape:version="1.4.2 (f4327f4, 2025-05-13)"
   sodipodi:docname="Tipos.svg"
   xmlns:inkscape="http://www.inkscape.org/namespaces/inkscape"
   xmlns:sodipodi="http://sodipodi.sourceforge.net/DTD/sodipodi-0.dtd"
   xmlns="http://www.w3.org/2000/svg"
   xmlns:svg="http://www.w3.org/2000/svg"><sodipodi:namedview
     id="namedview1"
     pagecolor="#505050"
     bordercolor="#eeeeee"
     borderopacity="1"
     inkscape:showpageshadow="0"
     inkscape:pageopacity="0"
     inkscape:pagecheckerboard="0"
     inkscape:deskcolor="#505050"
     inkscape:document-units="mm"
     inkscape:zoom="0.63374008"
     inkscape:cx="606.71561"
     inkscape:cy="396.85039"
     inkscape:window-width="1366"
     inkscape:window-height="705"
     inkscape:window-x="-8"
     inkscape:window-y="-8"
     inkscape:window-maximized="1"
     inkscape:current-layer="layer1"><inkscape:page
       x="0"
       y="0"
       width="162.59734"
       height="162.53937"
       id="page2"
       margin="0"
       bleed="0" /></sodipodi:namedview><defs
     id="defs1" /><g
     inkscape:label="Camada 1"
     inkscape:groupmode="layer"
     id="layer1"
     transform="translate(-27.037002,-457.60584)"><path
       d="m 107.68063,620.14346 c -4.4,-0.046 -11.900002,-0.9205 -16.666672,-1.9443 -4.766674,-1.0237 -13.715294,-4.354 -19.885824,-7.4005 -8.13424,-4.016 -13.64044,-7.9662 -20.0248,-14.3659 -5.95784,-5.9722 -10.65324,-12.3865 -14.51859,-19.8337 -3.14212,-6.0538 -6.57054,-15.0538 -7.61872,-20 -1.04817,-4.9463 -1.91619,-13.2472 -1.92892,-18.4465 -0.0127,-5.1994 1.16212,-14.0878 2.61078,-19.752 1.44866,-5.6642 4.59269,-14.0102 6.98673,-18.5466 2.53962,-4.8123 8.5362,-12.4596 14.39563,-18.3584 7.37154,-7.4211 12.69486,-11.4056 20.01327,-14.98 5.48374,-2.6783 13.5465,-5.7786 17.917244,-6.8896 4.37074,-1.111 13.094682,-2.0201 19.386542,-2.0201 6.29185,0 15.01579,0.9091 19.38653,2.0201 4.37074,1.111 12.4335,4.2113 17.91724,6.8896 7.30101,3.5659 12.66562,7.5765 20.03701,14.98 7.3228,7.3546 11.42908,12.8829 15.06547,20.2825 2.7494,5.5947 5.87233,14.2947 6.93984,19.3333 1.06752,5.0387 1.94094,13.0612 1.94094,17.8279 0,4.7666 -0.8576,12.7135 -1.90577,17.6598 -1.04818,4.9462 -4.4766,13.9462 -7.61872,20 -3.86535,7.4472 -8.56075,13.8615 -14.51859,19.8337 -6.39376,6.4091 -11.87858,10.3416 -20.0248,14.3573 -6.17053,3.0418 -15.41915,6.4093 -20.55249,7.4834 -5.13333,1.074 -12.93333,1.9155 -17.33333,1.87 z m -11.666672,-33.2576 c 1.65,0.029 3,-0.2577 3,-0.6378 0,-0.3802 -1.61955,-3.7886 -3.59901,-7.5742 -2.28351,-4.3671 -3.80191,-9.6882 -4.15414,-14.5576 -0.35619,-4.9243 0.21684,-9.9402 1.59901,-13.9967 1.18478,-3.4771 2.15414,-6.8151 2.15414,-7.4178 0,-0.6027 -2.6368,-1.0959 -5.85955,-1.0959 -3.222764,0 -9.723974,1.1936 -14.447144,2.6525 -4.72317,1.4588 -9.66005,3.8375 -10.97086,5.2859 -2.26435,2.5021 -2.2697,2.9173 -0.1072,8.322 1.25184,3.1286 4.30762,8.4559 6.79061,11.8384 2.483,3.3826 6.78245,7.6812 9.55434,9.5526 2.77189,1.8714 6.8398,4.3414 9.039804,5.4889 2.2,1.1475 5.35,2.1103 7,2.1397 z m 27.142222,-1.611 c 5.97661,-0.3823 8.78378,-1.4177 14,-5.1639 3.58845,-2.5771 8.42409,-7.1757 10.74587,-10.219 2.32177,-3.0433 5.47177,-8.8751 7,-12.9597 1.83345,-4.9003 2.77858,-10.5671 2.77858,-16.6597 0,-6.0765 -0.94482,-11.7586 -2.76351,-16.6194 -1.51992,-4.0624 -5.12787,-10.3773 -8.01765,-14.0332 -2.88979,-3.6558 -8.39621,-8.4502 -12.2365,-10.6542 -3.84029,-2.204 -8.78234,-4.5577 -10.98234,-5.2304 -2.2,-0.6728 -5.65,-1.5886 -7.66667,-2.0351 -3.5008,-0.7751 -3.66666,-1.1726 -3.66666,-8.7864 0,-4.3861 -0.3442,-7.9746 -0.76487,-7.9746 -0.42068,0 -3.76679,3.2845 -7.4358,7.299 -3.66901,4.0145 -10.954952,10.1471 -16.190992,13.628 -5.236034,3.4809 -11.438014,8.0129 -13.782184,10.0711 -2.34417,2.0582 -6.04542,6.5756 -8.225,10.0387 -2.17958,3.4631 -4.68619,8.5712 -5.57024,11.3515 -0.88405,2.7802 -1.28411,5.8974 -0.88902,6.927 0.55938,1.4577 1.69278,1.5892 5.12156,0.5942 2.42176,-0.7027 10.1032,-1.9143 17.06987,-2.6924 6.966664,-0.7781 15.135534,-2.5006 18.153034,-3.8278 3.017492,-1.3273 7.217492,-4.5828 9.333332,-7.2346 2.11583,-2.6517 4.28461,-4.8213 4.81951,-4.8213 0.5349,-10e-5 3.5349,2.7645 6.66667,6.1434 3.13177,3.3789 6.53952,7.7244 7.57278,9.6566 1.03327,1.9323 1.84634,6.9449 1.80683,11.1391 -0.0518,5.5041 -0.91217,8.9855 -3.09209,12.5127 -1.85224,2.997 -5.12917,5.81 -8.47349,7.274 -2.99928,1.3129 -8.30324,2.8048 -11.78657,3.3153 -4.88054,0.7153 -6.33334,1.4818 -6.33334,3.3412 0,1.3272 1.62443,4.3435 3.60985,6.7031 1.98541,2.3595 5.43541,5.4386 7.66666,6.8425 3.07487,1.9346 5.86629,2.4367 11.53238,2.0743 z m -46.076016,-62.3356 c -1.13641,0 -2.06621,-0.492 -2.06621,-1.0934 0,-0.6013 2.14675,-3.6013 4.77057,-6.6666 2.62381,-3.0654 5.5884,-5.5734 6.58797,-5.5734 0.99958,0 2.157124,0.5497 2.572314,1.2215 0.41519,0.6718 0.17638,2.743 -0.5307,4.6028 -0.70707,1.8597 -3.081574,4.3101 -5.276654,5.4452 -2.19509,1.1351 -4.92087,2.0639 -6.05729,2.0639 z"
       style="fill:#6622ef;fill-opacity:1"
       id="path1-4" /></g></svg>
