<?xml version="1.0" encoding="UTF-8" standalone="no"?>
<!-- Created with Inkscape (http://www.inkscape.org/) -->

<svg
   width="43.099777mm"
   height="43.051991mm"
   viewBox="0 0 162.8968 162.71619"
   version="1.1"
   id="svg1"
   xml:space="preserve"
   inkscape:version="1.4.2 (f4327f4, 2025-05-13)"
   sodipodi:docname="Tipos.svg"
   xmlns:inkscape="http://www.inkscape.org/namespaces/inkscape"
   xmlns:sodipodi="http://sodipodi.sourceforge.net/DTD/sodipodi-0.dtd"
   xmlns="http://www.w3.org/2000/svg"
   xmlns:svg="http://www.w3.org/2000/svg"><sodipodi:namedview
     id="namedview1"
     pagecolor="#505050"
     bordercolor="#eeeeee"
     borderopacity="1"
     inkscape:showpageshadow="0"
     inkscape:pageopacity="0"
     inkscape:pagecheckerboard="0"
     inkscape:deskcolor="#505050"
     inkscape:document-units="mm"
     inkscape:zoom="0.63374008"
     inkscape:cx="606.71561"
     inkscape:cy="396.85039"
     inkscape:window-width="1366"
     inkscape:window-height="705"
     inkscape:window-x="-8"
     inkscape:window-y="-8"
     inkscape:window-maximized="1"
     inkscape:current-layer="layer1"><inkscape:page
       x="0"
       y="0"
       width="162.8968"
       height="162.71619"
       id="page2"
       margin="0"
       bleed="0" /></sodipodi:namedview><defs
     id="defs1" /><g
     inkscape:label="Camada 1"
     inkscape:groupmode="layer"
     id="layer1"
     transform="translate(-734.00705,-471.43811)"><path
       d="m 815.37396,634.15273 c -6.47648,-0.046 -15.12374,-1.0968 -20.0532,-2.4377 -4.76666,-1.2967 -11.36666,-3.5772 -14.66666,-5.0678 -3.3,-1.4907 -9.72692,-5.4755 -14.28204,-8.8551 -4.55511,-3.3796 -11.02795,-9.613 -14.38408,-13.852 -3.35613,-4.2389 -7.86353,-11.3601 -10.01645,-15.8248 -2.15292,-4.4646 -4.82121,-11.9646 -5.92954,-16.6666 -1.10833,-4.702 -2.02401,-13.3612 -2.03485,-19.2426 -0.0125,-6.7749 0.99207,-14.3446 2.74137,-20.6571 1.5186,-5.4801 4.66846,-13.568 6.9997,-17.9732 2.39627,-4.5281 8.58531,-12.3872 14.23891,-18.0811 6.7303,-6.7783 13.09242,-11.6708 19.45658,-14.9621 5.20094,-2.6899 13.00094,-5.8324 17.33333,-6.9835 4.62805,-1.2297 13.39053,-2.1003 21.24418,-2.1108 10.65209,-0.014 15.54804,0.6712 24.10455,3.3742 5.90559,1.8655 14.46638,5.802 19.02398,8.7478 4.5576,2.9457 11.0631,8.2021 14.45666,11.6809 3.39356,3.4788 8.47398,9.878 11.28983,14.2205 2.81585,4.3425 6.65989,12.7425 8.54231,18.6667 2.70709,8.5195 3.43135,13.5585 3.46457,24.1045 0.0276,8.7456 -0.74805,16.086 -2.25411,21.3334 -1.26286,4.4 -4.45193,12.2 -7.08682,17.3333 -3.16959,6.1751 -8.19443,12.7582 -14.8494,19.4544 -7.42555,7.4715 -12.67646,11.3929 -20.05868,14.9799 -5.5,2.6724 -13.57606,5.768 -17.9468,6.879 -4.37074,1.111 -13.07074,1.9839 -19.33334,1.9398 z m 16.10108,-34.5864 c 0.64848,0 1.16914,-1.05 1.15701,-2.3334 -0.0121,-1.2833 -2.08803,-8.8796 -4.61313,-16.8806 -2.5251,-8.001 -4.27978,-15.051 -3.89927,-15.6666 0.3805,-0.6157 4.78295,-1.1194 9.78321,-1.1194 5.65571,0 9.60758,-0.6299 10.45733,-1.6667 0.96781,-1.1809 -0.77051,-8.6621 -5.96379,-25.6667 -4.03137,-13.2 -7.94605,-24.75 -8.69929,-25.6666 -0.97526,-1.1869 -6.67378,-1.6667 -19.79425,-1.6667 -10.1336,0 -18.74836,0.5237 -19.14393,1.1637 -0.39556,0.64 1.66903,6.6701 4.58798,13.4 2.91895,6.73 5.30719,13.1063 5.30719,14.1697 0,1.5309 -2.28914,1.9375 -11,1.9537 -6.05,0.011 -11.84095,0.5528 -12.86878,1.2036 -1.42105,0.8997 4.76514,8.0822 25.82095,29.9796 15.22934,15.838 28.22029,28.7964 28.86877,28.7964 z"
       style="fill:#ffd625;fill-opacity:1"
       id="path1-84" /></g></svg>
