<?xml version="1.0" encoding="UTF-8" standalone="no"?>
<!-- Created with Inkscape (http://www.inkscape.org/) -->

<svg
   width="43.279545mm"
   height="43.355469mm"
   viewBox="0 0 163.57623 163.86319"
   version="1.1"
   id="svg1"
   xml:space="preserve"
   inkscape:version="1.4.2 (f4327f4, 2025-05-13)"
   sodipodi:docname="Tipos.svg"
   xmlns:inkscape="http://www.inkscape.org/namespaces/inkscape"
   xmlns:sodipodi="http://sodipodi.sourceforge.net/DTD/sodipodi-0.dtd"
   xmlns="http://www.w3.org/2000/svg"
   xmlns:svg="http://www.w3.org/2000/svg"><sodipodi:namedview
     id="namedview1"
     pagecolor="#505050"
     bordercolor="#eeeeee"
     borderopacity="1"
     inkscape:showpageshadow="0"
     inkscape:pageopacity="0"
     inkscape:pagecheckerboard="0"
     inkscape:deskcolor="#505050"
     inkscape:document-units="mm"
     inkscape:zoom="0.63374008"
     inkscape:cx="606.71561"
     inkscape:cy="396.85039"
     inkscape:window-width="1366"
     inkscape:window-height="705"
     inkscape:window-x="-8"
     inkscape:window-y="-8"
     inkscape:window-maximized="1"
     inkscape:current-layer="layer1"><inkscape:page
       x="0"
       y="0"
       width="163.57623"
       height="163.86319"
       id="page2"
       margin="0"
       bleed="0" /></sodipodi:namedview><defs
     id="defs1" /><g
     inkscape:label="Camada 1"
     inkscape:groupmode="layer"
     id="layer1"
     transform="translate(-488.47149,-466.1085)"><g
       id="g454"
       transform="translate(-702.07976,382.02053)"><path
         style="fill:#653a92"
         d="m 1320.3047,128.04764 c -0.3666,0 -0.6666,-0.3 -0.6666,-0.66667 0,-0.36666 0.3,-0.66666 0.6666,-0.66666 0.3667,0 0.6667,0.3 0.6667,0.66666 0,0.36667 -0.3,0.66667 -0.6667,0.66667 z m 21.3334,0 c -0.3667,0 -0.6667,-0.3 -0.6667,-0.66667 0,-0.36666 0.3,-0.66666 0.6667,-0.66666 0.3666,0 0.6666,0.3 0.6666,0.66666 0,0.36667 -0.3,0.66667 -0.6666,0.66667 z m 21.3333,0 c -0.3667,0 -0.6667,-0.3 -0.6667,-0.66667 0,-0.36666 0.3,-0.66666 0.6667,-0.66666 0.3667,0 0.6667,0.3 0.6667,0.66666 0,0.36667 -0.3,0.66667 -0.6667,0.66667 z"
         id="path456"
         sodipodi:nodetypes="sssssssssssssss" /></g><path
       d="m 574.87628,629.67113 c -5.07215,0.371 -11.0221,0.4031 -13.2221,0.071 -2.2,-0.3316 -7.52345,-1.4997 -11.82988,-2.5955 -4.30644,-1.0959 -11.50644,-3.7374 -16,-5.8701 -4.49357,-2.1326 -11.61951,-6.7472 -15.83543,-10.2545 -4.21592,-3.5074 -10.12864,-9.6707 -13.13938,-13.6964 -3.01074,-4.0257 -6.83456,-10.0257 -8.49738,-13.3333 -1.66282,-3.3077 -4.11555,-9.614 -5.45049,-14.014 -1.7142,-5.65 -2.42806,-12.3083 -2.43016,-22.6667 -0.002,-10.6047 0.66826,-16.6976 2.42071,-22 1.33303,-4.0333 4.56969,-11.5333 7.19257,-16.6666 3.12959,-6.125 8.00021,-12.5484 14.16916,-18.6862 5.17016,-5.1441 12.16619,-10.9701 15.54675,-12.9467 3.38056,-1.9766 10.88056,-5.2338 16.66667,-7.2381 8.95812,-3.1032 12.69796,-3.6474 25.18686,-3.6653 10.31732,-0.015 17.03904,0.6902 22.66667,2.3772 4.4,1.3191 11.97769,4.4808 16.83931,7.0261 4.86162,2.5452 12.44719,8.0715 16.85681,12.2805 4.40963,4.209 10.48836,11.4756 13.50829,16.1481 3.01993,4.6724 7.04826,13.3423 8.95183,19.2665 2.66947,8.3078 3.48507,13.6682 3.56613,23.4379 0.0706,8.5131 -0.69498,15.5086 -2.3348,21.3333 -1.34195,4.7667 -4.57672,12.8667 -7.18838,18 -3.20697,6.3035 -8.01385,12.5942 -14.80717,19.3782 -6.07285,6.0645 -13.38637,11.7888 -18.45648,14.4459 -4.61879,2.4205 -12.16884,5.4794 -16.7779,6.7975 -4.60906,1.3181 -12.53005,2.7 -17.60221,3.0709 z m -4.71587,-27.0258 c 0.5815,0 4.2334,-5.3657 8.11533,-11.9238 3.88192,-6.558 7.77499,-12.1989 8.65126,-12.5351 0.87627,-0.3363 4.39747,0.03 7.8249,0.8146 3.42743,0.7843 6.65186,1.0059 7.1654,0.4923 0.51354,-0.5135 0.22351,-3.589 -0.6445,-6.8344 -0.86802,-3.2454 -1.23271,-6.8011 -0.81043,-7.9016 0.42228,-1.1004 5.46228,-4.753 11.19999,-8.1168 5.73771,-3.3638 11.12723,-6.9534 11.9767,-7.977 1.23987,-1.4939 0.53897,-2.4886 -3.55352,-5.0428 -2.80391,-1.7501 -8.24043,-4.9329 -12.08115,-7.0731 -3.84073,-2.1402 -7.24483,-4.5732 -7.56468,-5.4067 -0.31985,-0.8335 0.042,-3.9722 0.80421,-6.9749 0.76216,-3.0027 1.04771,-6.3403 0.63454,-7.417 -0.59303,-1.5454 -1.67645,-1.6922 -5.1456,-0.6973 -2.41692,0.6932 -5.89837,1.253 -7.73654,1.244 -2.78912,-0.014 -4.52154,-2.0106 -10.46975,-12.0686 -3.92019,-6.6287 -7.80365,-11.8269 -8.6299,-11.5515 -0.82626,0.2754 -4.56973,5.5563 -8.31882,11.7352 -6.45674,10.6415 -7.05687,11.2294 -11.3701,11.1378 -2.50446,-0.053 -6.35357,-0.3532 -8.55357,-0.6666 -3.77728,-0.5383 -3.96826,-0.3473 -3.43003,3.43 0.31348,2.2 0.61348,6.0491 0.66667,8.5536 0.0916,4.3132 -0.49628,4.9133 -11.13778,11.3701 -6.17897,3.749 -11.45982,7.4925 -11.73524,8.3188 -0.27542,0.8262 4.92277,4.7097 11.55152,8.6299 10.05801,5.9482 12.05499,7.6806 12.06858,10.4697 0.009,1.8382 -0.55085,5.3196 -1.24402,7.7366 -0.9401,3.2779 -0.82749,4.5604 0.44325,5.0481 0.93695,0.3595 4.27796,0.075 7.42446,-0.6317 3.14651,-0.707 6.39705,-1.0116 7.22343,-0.6769 0.82637,0.3348 4.67851,5.9876 8.5603,12.5619 3.8818,6.5743 7.53358,11.9532 8.11509,11.9532 z m 0.72978,-32.3988 c -0.78686,0.255 -2.33791,-0.6009 -3.44678,-1.9021 -1.10887,-1.3011 -3.27632,-4.4657 -4.81657,-7.0324 -1.54191,-2.5695 -5.53557,-6.1522 -8.88655,-7.9722 -3.4899,-1.8954 -6.08611,-4.2586 -6.08611,-5.5399 0,-1.2461 2.71663,-3.8266 6.1416,-5.8337 3.83465,-2.2473 7.66578,-6.0511 10.1993,-10.1267 2.23174,-3.5901 4.87547,-6.5275 5.87497,-6.5275 0.99949,0 3.90048,3.2566 6.44665,7.2369 2.54617,3.9803 5.78924,7.605 7.20682,8.055 1.41759,0.4499 4.12691,2.0368 6.02071,3.5265 1.89381,1.4896 3.44329,3.2465 3.44329,3.9041 0,0.6575 -3.22418,3.258 -7.16485,5.7788 -4.5562,2.9146 -8.31845,6.6561 -10.33333,10.2764 -1.74267,3.1312 -3.81229,5.9017 -4.59915,6.1568 z"
       style="fill:#faa5d2;fill-opacity:1"
       id="path1-5" /></g></svg>
