<?xml version="1.0" encoding="UTF-8" standalone="no"?>
<!-- Created with Inkscape (http://www.inkscape.org/) -->

<svg
   width="42.882393mm"
   height="42.927139mm"
   viewBox="0 0 162.07519 162.24431"
   version="1.1"
   id="svg1"
   xml:space="preserve"
   inkscape:version="1.4.2 (f4327f4, 2025-05-13)"
   sodipodi:docname="Tipos.svg"
   xmlns:inkscape="http://www.inkscape.org/namespaces/inkscape"
   xmlns:sodipodi="http://sodipodi.sourceforge.net/DTD/sodipodi-0.dtd"
   xmlns="http://www.w3.org/2000/svg"
   xmlns:svg="http://www.w3.org/2000/svg"><sodipodi:namedview
     id="namedview1"
     pagecolor="#505050"
     bordercolor="#eeeeee"
     borderopacity="1"
     inkscape:showpageshadow="0"
     inkscape:pageopacity="0"
     inkscape:pagecheckerboard="0"
     inkscape:deskcolor="#505050"
     inkscape:document-units="mm"
     inkscape:zoom="0.63374008"
     inkscape:cx="606.71561"
     inkscape:cy="396.85039"
     inkscape:window-width="1366"
     inkscape:window-height="705"
     inkscape:window-x="-8"
     inkscape:window-y="-8"
     inkscape:window-maximized="1"
     inkscape:current-layer="layer1"><inkscape:page
       x="0"
       y="0"
       width="162.0752"
       height="162.24431"
       id="page2"
       margin="0"
       bleed="0" /></sodipodi:namedview><defs
     id="defs1" /><g
     inkscape:label="Camada 1"
     inkscape:groupmode="layer"
     id="layer1"
     transform="translate(-1229.8133,-225.63253)"><path
       d="m 1313.9165,387.75903 c -10.8732,0.3561 -17.4664,-0.081 -22.6666,-1.5024 -4.0334,-1.1024 -11.8334,-4.1862 -17.3334,-6.8528 -7.5923,-3.681 -12.5717,-7.4497 -20.6817,-15.653 -7.286,-7.3698 -12.0361,-13.5744 -14.9421,-19.5173 -2.3432,-4.792 -5.2096,-12.292 -6.3699,-16.6667 -1.2175,-4.5909 -2.1095,-13.3096 -2.1095,-20.6206 0,-7.311 0.892,-16.0298 2.1095,-20.6206 1.1603,-4.3747 4.0321,-11.8747 6.382,-16.6667 2.6587,-5.4219 7.951,-12.5732 14.0116,-18.9336 7.2133,-7.5701 12.4405,-11.6264 20.155,-15.6399 5.7288,-2.9804 14.2475,-6.3221 18.9305,-7.426 4.6831,-1.1039 13.6386,-2.016 19.9012,-2.0268 6.2626,-0.011 14.9626,0.8893 19.3333,2.0003 4.3708,1.111 12.1468,4.0756 17.2801,6.5879 5.1334,2.5123 12.7554,7.6263 16.9378,11.3645 4.1825,3.7381 10.5044,11.1323 14.0486,16.4314 3.5443,5.2991 7.9137,14.126 9.7099,19.6154 2.6939,8.2328 3.2676,12.6662 3.2756,25.3141 0.01,11.4785 -0.6159,17.177 -2.4786,22.6667 -1.3685,4.0333 -4.5167,11.2462 -6.9958,16.0287 -2.4792,4.7824 -7.226,11.8028 -10.5484,15.6009 -3.3224,3.798 -10.4553,9.8581 -15.8509,13.4669 -5.3955,3.6087 -13.6249,7.9083 -18.2875,9.5545 -6.3614,2.246 -12.3045,3.1184 -23.8107,3.4951 z m 8,-30.8404 c 6.2334,-0.3153 14.6334,-1.5426 18.6667,-2.7272 4.0333,-1.1847 7.8892,-2.6853 8.5685,-3.3348 0.7495,-0.7165 0.3563,-2.1519 -1,-3.6506 -1.2293,-1.3584 -2.2352,-3.956 -2.2352,-5.7724 0,-1.8165 1.5011,-5.3372 3.3357,-7.8238 1.8345,-2.4867 4.5762,-7.837 6.0925,-11.8897 1.8298,-4.8907 2.7696,-10.6079 2.7947,-17.0015 0.022,-5.5906 -0.9106,-12.4883 -2.2222,-16.4371 -1.243,-3.7422 -4.354,-9.5475 -6.9135,-12.9005 -2.5594,-3.3531 -6.2511,-7.5181 -8.2037,-9.2556 -1.9525,-1.7375 -6.571,-4.6709 -10.2632,-6.5186 -3.6922,-1.8477 -10.3488,-3.9999 -14.7925,-4.7826 -5.6063,-0.9875 -10.3466,-1.0041 -15.4855,-0.054 -4.0733,0.753 -10.1847,2.6752 -13.5809,4.2716 -3.3961,1.5964 -9.1384,5.567 -12.7606,8.8237 -4.1564,3.737 -8.1994,9.1989 -10.96,14.8063 -4.0169,8.1595 -4.3741,9.9241 -4.3741,21.6078 0,11.6524 0.3636,13.4613 4.3217,21.5014 2.6162,5.3142 6.982,11.267 11.0627,15.084 3.7075,3.4679 10.5432,8.0294 15.1904,10.1365 4.6472,2.1071 11.369,4.4295 14.9373,5.1608 3.5684,0.7313 11.5879,1.0717 17.8212,0.7564 z m -33.6263,-48.6391 c -3.7024,0 -6.0867,-0.9252 -8.4343,-3.2727 -1.9289,-1.929 -3.2727,-4.8182 -3.2727,-7.0367 0,-2.0701 0.934,-5.0974 2.0756,-6.7272 1.1416,-1.6299 2.9416,-2.9634 4,-2.9634 1.0584,0 1.9244,0.7954 1.9244,1.7676 0,0.9722 1.3887,3.0722 3.086,4.6667 1.6972,1.5945 4.716,2.8991 6.7085,2.8991 2.0429,0 3.9686,0.9017 4.416,2.0678 0.4575,1.1921 -0.5057,3.4508 -2.2742,5.3333 -2.2307,2.3745 -4.4762,3.2655 -8.2293,3.2655 z m 40.0606,0 c -3.3739,0 -6.0316,-0.9306 -7.8496,-2.7486 -1.5117,-1.5118 -2.5581,-3.7379 -2.3252,-4.947 0.2361,-1.226 2.2404,-2.57 4.5317,-3.0386 2.2595,-0.4621 4.8429,-1.2943 5.7408,-1.8492 0.8979,-0.5549 2.1807,-2.4507 2.8506,-4.2128 0.67,-1.7621 2.0595,-3.2038 3.0879,-3.2038 1.0283,0 2.6632,0.9561 3.633,2.1246 0.9697,1.1686 1.7632,4.1521 1.7632,6.6302 0,2.9074 -1.123,5.701 -3.1657,7.8754 -2.316,2.4653 -4.535,3.3698 -8.2667,3.3698 z"
       style="fill:#663a92;fill-opacity:1"
       id="path1-6" /></g></svg>
