<?xml version="1.0" encoding="UTF-8" standalone="no"?>
<!-- Created with Inkscape (http://www.inkscape.org/) -->

<svg
   width="42.96629mm"
   height="42.957718mm"
   viewBox="0 0 162.39227 162.35988"
   version="1.1"
   id="svg1"
   xml:space="preserve"
   inkscape:version="1.4.2 (f4327f4, 2025-05-13)"
   sodipodi:docname="Tipos.svg"
   xmlns:inkscape="http://www.inkscape.org/namespaces/inkscape"
   xmlns:sodipodi="http://sodipodi.sourceforge.net/DTD/sodipodi-0.dtd"
   xmlns="http://www.w3.org/2000/svg"
   xmlns:svg="http://www.w3.org/2000/svg"><sodipodi:namedview
     id="namedview1"
     pagecolor="#505050"
     bordercolor="#eeeeee"
     borderopacity="1"
     inkscape:showpageshadow="0"
     inkscape:pageopacity="0"
     inkscape:pagecheckerboard="0"
     inkscape:deskcolor="#505050"
     inkscape:document-units="mm"
     inkscape:zoom="0.63374008"
     inkscape:cx="606.71561"
     inkscape:cy="396.85039"
     inkscape:window-width="1366"
     inkscape:window-height="705"
     inkscape:window-x="-8"
     inkscape:window-y="-8"
     inkscape:window-maximized="1"
     inkscape:current-layer="layer1"><inkscape:page
       x="6.5426587e-13"
       y="0"
       width="162.39227"
       height="162.35988"
       id="page2"
       margin="0"
       bleed="0" /></sodipodi:namedview><defs
     id="defs1" /><g
     inkscape:label="Camada 1"
     inkscape:groupmode="layer"
     id="layer1"
     transform="translate(-738.37501,-204.28301)"><path
       d="m 818.9181,366.6346 c -2.2,-0.0833 -7.37802,-0.64313 -11.5067,-1.24444 -4.12868,-0.60121 -10.98798,-2.30609 -15.24287,-3.78844 -4.2549,-1.48245 -10.98908,-4.63529 -14.96485,-7.00631 -3.97578,-2.37103 -10.39979,-7.31846 -14.27559,-10.9945 -3.87581,-3.67593 -9.12311,-9.92094 -11.66068,-13.8778 -2.53757,-3.95676 -6.30376,-11.3576 -8.36932,-16.44609 -3.0957,-7.62635 -3.86124,-11.81071 -4.3571,-23.81561 -0.44182,-10.69671 -0.0277,-16.83834 1.55951,-23.12974 1.18858,-4.71122 4.40269,-13.0266 7.14247,-18.4786 3.45281,-6.8708 7.87338,-12.79494 14.4057,-19.30531 7.06351,-7.03972 12.24387,-10.77037 20.68019,-14.89287 6.19075,-3.02517 15.4559,-6.3714 20.58924,-7.43603 5.13333,-1.06472 12.63333,-1.93585 16.66666,-1.93585 4.03334,0 11.53334,0.87113 16.66667,1.93585 5.13333,1.06463 14.13333,4.29548 20,7.17969 5.86667,2.8841 13.73704,7.92739 17.48972,11.20722 3.75267,3.27992 9.61534,10.01442 13.02815,14.96562 3.41281,4.95121 7.80375,13.44948 9.75764,18.88512 2.73398,7.60573 3.67902,13.08053 4.10154,23.76069 0.40345,10.1985 -0.0461,16.15545 -1.69583,22.46886 -1.23465,4.725 -4.69209,13.26173 -7.68318,18.97046 -3.55634,6.78754 -8.31294,13.19106 -13.74489,18.50378 -4.56859,4.46836 -11.56023,10.06418 -15.53697,12.43511 -3.97674,2.37102 -10.54325,5.46518 -14.59226,6.87586 -4.049,1.41068 -11.20829,3.18356 -15.90954,3.93971 -4.70124,0.75614 -10.34771,1.30669 -12.54771,1.22362 z m 6,-25.91591 c 3.3,-0.38045 9,-1.79935 12.66666,-3.15294 3.66667,-1.35368 8.46667,-3.89916 10.66667,-5.65669 2.2,-1.75762 3.60833,-3.58761 3.12962,-4.06669 -0.4787,-0.47908 -4.54704,-0.15405 -9.04074,0.72224 -4.49371,0.87638 -11.73694,1.27289 -16.09608,0.88104 -4.72453,-0.42466 -9.81448,-1.86954 -12.60206,-3.5773 -2.572,-1.57573 -6.00747,-4.71806 -7.6344,-6.98292 -2.10272,-2.92722 -2.97707,-6.08928 -3.02385,-10.93561 -0.0362,-3.74978 0.7312,-8.29645 1.70533,-10.10383 0.97413,-1.80729 3.46671,-4.27883 5.53906,-5.49234 2.2172,-1.29827 6.619,-2.20628 10.69551,-2.20628 6.04836,0 7.48164,0.54917 11.29282,4.3271 2.86145,2.83643 4.6833,6.19347 5.2886,9.745 0.66946,3.92791 0.2767,6.82699 -1.42823,10.54188 -1.29339,2.81828 -2.58327,5.57025 -2.86638,6.11545 -0.28311,0.5452 1.05915,0.99127 2.98281,0.99127 1.92366,0 5.75063,-1.13937 8.50437,-2.532 2.75375,-1.39264 7.4624,-5.17276 10.46368,-8.40034 3.00128,-3.22758 6.12076,-7.098 6.93219,-8.60097 0.81142,-1.50286 2.13336,-5.77416 2.93764,-9.49162 1.07491,-4.96836 1.05964,-8.40936 -0.0576,-12.98804 -0.83597,-3.42594 -3.59629,-9.05408 -6.13406,-12.50698 -2.53776,-3.453 -5.44151,-6.27802 -6.45278,-6.27802 -1.03409,0 -2.20948,1.95935 -2.68609,4.47777 -0.46609,2.46282 -2.41468,6.03139 -4.33021,7.93018 -2.8963,2.87102 -4.69721,3.4524 -10.69489,3.4524 -5.82518,0 -7.82449,-0.60706 -10.39648,-3.15661 -1.7514,-1.73611 -3.60342,-5.37091 -4.11561,-8.07718 -0.64451,-3.40561 -0.27521,-6.28437 1.19939,-9.34968 1.30774,-2.71846 4.20807,-5.47955 7.50954,-7.14915 3.18924,-1.6128 5.367,-3.65085 5.34964,-5.00622 -0.0161,-1.25743 -1.13696,-4.66522 -2.49078,-7.57292 -1.35382,-2.90779 -4.01628,-6.70605 -5.91658,-8.44058 l -3.45508,-3.15383 -1.2952,3.15383 c -0.71235,1.73453 -1.62368,4.69278 -2.02516,6.57372 -0.40149,1.88094 -2.04247,5.07392 -3.64662,7.09542 -1.60416,2.0216 -6.08503,5.68465 -9.95749,8.14023 -3.87247,2.45558 -8.56124,6.44059 -10.4195,8.85563 -1.85827,2.41503 -4.23818,6.80587 -5.2887,9.75738 -1.05052,2.95151 -2.33466,8.73529 -2.85364,12.85273 -0.58429,4.63579 -1.51701,7.30072 -2.44945,6.99868 -0.82822,-0.26834 -2.02673,-2.82175 -2.66335,-5.67424 -0.63662,-2.85258 -1.42947,-6.07858 -1.76189,-7.16897 -0.50064,-1.64215 -0.92142,-1.55561 -2.45104,0.50426 -1.01566,1.36775 -2.52362,5.71924 -3.35104,9.67015 -0.85442,4.07978 -1.10397,10.14329 -0.57761,14.03443 0.50973,3.76802 2.39469,9.95375 4.1888,13.74596 1.79411,3.79231 5.86441,9.54932 9.04513,12.79346 3.18071,3.24413 8.95553,7.49203 12.83295,9.43968 3.87741,1.94775 9.79087,4.00761 13.14102,4.5776 3.35015,0.56988 8.79118,0.72491 12.09118,0.34446 z"
       style="fill:#ff7111;fill-opacity:1;stroke-width:0.995626"
       id="path1-63" /></g></svg>
