<?xml version="1.0" encoding="UTF-8" standalone="no"?>
<!-- Created with Inkscape (http://www.inkscape.org/) -->

<svg
   width="43.238411mm"
   height="43.35952mm"
   viewBox="0 0 163.42077 163.87851"
   version="1.1"
   id="svg1"
   xml:space="preserve"
   inkscape:version="1.4.2 (f4327f4, 2025-05-13)"
   sodipodi:docname="Tipos.svg"
   xmlns:inkscape="http://www.inkscape.org/namespaces/inkscape"
   xmlns:sodipodi="http://sodipodi.sourceforge.net/DTD/sodipodi-0.dtd"
   xmlns="http://www.w3.org/2000/svg"
   xmlns:svg="http://www.w3.org/2000/svg"><sodipodi:namedview
     id="namedview1"
     pagecolor="#505050"
     bordercolor="#eeeeee"
     borderopacity="1"
     inkscape:showpageshadow="0"
     inkscape:pageopacity="0"
     inkscape:pagecheckerboard="0"
     inkscape:deskcolor="#505050"
     inkscape:document-units="mm"
     inkscape:zoom="0.63374008"
     inkscape:cx="606.71561"
     inkscape:cy="396.85039"
     inkscape:window-width="1366"
     inkscape:window-height="705"
     inkscape:window-x="-8"
     inkscape:window-y="-8"
     inkscape:window-maximized="1"
     inkscape:current-layer="layer1"><inkscape:page
       x="0"
       y="8.1547253e-13"
       width="163.42078"
       height="163.87851"
       id="page2"
       margin="0"
       bleed="0" /></sodipodi:namedview><defs
     id="defs1" /><g
     inkscape:label="Camada 1"
     inkscape:groupmode="layer"
     id="layer1"
     transform="translate(-1211.4072,-434.56458)"><path
       d="m 1298.4379,598.14673 c -5.4966,0.3626 -12.0938,0.3975 -14.6604,0.077 -2.5667,-0.3201 -9.497,-2.0346 -15.4008,-3.8101 -5.9038,-1.7754 -14.5228,-5.6768 -19.1535,-8.6697 -4.6306,-2.9929 -11.5036,-8.6774 -15.2734,-12.6322 -3.7697,-3.9548 -8.8931,-10.5549 -11.3853,-14.667 -2.4921,-4.112 -6.0013,-11.7947 -7.7981,-17.0727 -2.6521,-7.79 -3.2836,-12.357 -3.3552,-24.2629 -0.063,-10.4115 0.6016,-16.9877 2.2896,-22.6667 1.3078,-4.4 4.5507,-12.2 7.2064,-17.3333 3.0901,-5.973 8.1965,-12.7013 14.1827,-18.6876 5.9352,-5.9351 12.7656,-11.1304 18.6876,-14.2137 5.1333,-2.6728 12.9333,-5.9359 17.3333,-7.2514 5.4867,-1.6404 12.3982,-2.3918 22,-2.3918 9.6018,0 16.5133,0.7514 22,2.3918 4.4,1.3155 12.169,4.5749 17.2644,7.243 5.7415,3.0065 12.8501,8.4113 18.6943,14.2137 6.1309,6.0872 11.1168,12.6278 14.2517,18.696 2.652,5.1333 5.8881,12.9333 7.1914,17.3333 1.6362,5.5241 2.3524,12.3329 2.3139,22 -0.045,11.3505 -0.7148,16.0385 -3.5381,24.7712 -1.9153,5.9242 -5.8002,14.3242 -8.633,18.6667 -2.8329,4.3425 -8.9893,11.5302 -13.681,15.9726 -4.6916,4.4424 -11.8303,9.9349 -15.8636,12.2056 -4.0333,2.2706 -11.2361,5.3209 -16.0062,6.7784 -4.7701,1.4575 -13.1701,2.9467 -18.6667,3.3094 z m -33.6708,-31.0372 c 0.2998,0 4.8498,-2.4838 10.1111,-5.5196 5.2613,-3.0358 10.6159,-6.4287 11.8993,-7.54 1.9096,-1.6535 2.3333,-4.2685 2.3333,-14.4017 0,-6.8097 -0.5925,-12.7476 -1.3168,-13.1952 -0.7242,-0.4476 -5.6742,1.7008 -11,4.7742 -5.3257,3.0735 -10.7332,6.4973 -12.0165,7.6085 -1.906,1.6504 -2.3334,4.2617 -2.3334,14.2582 0,6.7308 0.4,12.6378 0.8889,13.1267 0.4889,0.4889 1.1342,0.8889 1.4341,0.8889 z m 57.0104,-0.5048 c 0.7333,-0.2077 1.5066,-5.9395 1.7185,-12.7374 0.2433,-7.8081 -0.1719,-13.0309 -1.1274,-14.1822 -0.8319,-1.0024 -6.2714,-4.5674 -12.0877,-7.9223 -5.8163,-3.3548 -11.159,-5.7389 -11.8726,-5.2978 -0.7136,0.441 -1.2975,6.393 -1.2975,13.2266 0,9.8763 0.448,12.8 2.1842,14.2546 1.2013,1.0065 6.4513,4.3513 11.6667,7.4331 5.2153,3.0817 10.0824,5.4331 10.8158,5.2254 z m -63.3334,-36.8767 c 1.1,0 6.6862,-2.7306 12.4138,-6.068 5.7276,-3.3373 10.1789,-6.7765 9.8918,-7.6425 -0.2871,-0.8661 -4.6732,-4.0807 -9.7471,-7.1435 -5.0738,-3.0629 -10.7251,-5.5963 -12.5585,-5.6299 -1.8333,-0.034 -7.4905,2.4941 -12.5716,5.6172 -5.0811,3.123 -9.4673,6.365 -9.7471,7.2045 -0.2798,0.8395 4.1774,4.2569 9.905,7.5942 5.7275,3.3374 11.3137,6.068 12.4137,6.068 z m 69.3334,0 c 1.1,0 6.65,-2.7096 12.3333,-6.0213 5.6833,-3.3118 10.3331,-6.7509 10.3327,-7.6426 -3e-4,-0.8917 -4.579,-4.1713 -10.1748,-7.288 -5.5959,-3.1166 -11.4456,-5.6518 -12.9994,-5.6338 -1.5538,0.018 -6.9825,2.5681 -12.0637,5.6667 -5.0812,3.0986 -9.4674,6.3424 -9.7471,7.2085 -0.2797,0.866 4.1776,4.3052 9.9052,7.6425 5.7276,3.3374 11.3138,6.068 12.4138,6.068 z m -39.7348,-24.3354 c 0.565,-0.8891 1.0365,-6.7619 1.0477,-13.0507 0.018,-10.1864 -0.307,-11.7276 -2.9796,-14.1227 -1.65,-1.4787 -7.0551,-4.9155 -12.0114,-7.6374 -4.9563,-2.7219 -9.6063,-4.5813 -10.3333,-4.1319 -0.7271,0.4493 -1.322,6.4081 -1.322,13.2417 0,8.4749 0.5431,12.8754 1.7084,13.8425 0.9396,0.7798 6.4682,4.1307 12.2857,7.4464 7.6374,4.3529 10.8628,5.5793 11.6045,4.4121 z m 19.6176,-3.1586 c 4.8311,-2.6748 10.4338,-6.013 12.4505,-7.418 3.5575,-2.4787 3.6667,-2.9269 3.6667,-15.052 0,-7.0873 -0.591,-12.8624 -1.3652,-13.3408 -0.7508,-0.4641 -6.3008,1.9909 -12.3333,5.4556 -6.0325,3.4646 -11.409,6.9589 -11.9478,7.765 -0.5387,0.8061 -0.9887,6.9157 -1,13.5768 -0.011,6.6611 0.3769,12.5084 0.8624,12.9939 0.4855,0.4855 4.8355,-1.3057 9.6667,-3.9805 z"
       style="fill:#87dded;fill-opacity:1"
       id="path1-98" /></g></svg>
