<?xml version="1.0" encoding="UTF-8" standalone="no"?>
<!-- Created with Inkscape (http://www.inkscape.org/) -->

<svg
   width="43.439888mm"
   height="43.450665mm"
   viewBox="0 0 164.18226 164.22299"
   version="1.1"
   id="svg1"
   xml:space="preserve"
   inkscape:version="1.4.2 (f4327f4, 2025-05-13)"
   sodipodi:docname="Tipos.svg"
   xmlns:inkscape="http://www.inkscape.org/namespaces/inkscape"
   xmlns:sodipodi="http://sodipodi.sourceforge.net/DTD/sodipodi-0.dtd"
   xmlns="http://www.w3.org/2000/svg"
   xmlns:svg="http://www.w3.org/2000/svg"><sodipodi:namedview
     id="namedview1"
     pagecolor="#505050"
     bordercolor="#eeeeee"
     borderopacity="1"
     inkscape:showpageshadow="0"
     inkscape:pageopacity="0"
     inkscape:pagecheckerboard="0"
     inkscape:deskcolor="#505050"
     inkscape:document-units="mm"
     inkscape:zoom="0.63374008"
     inkscape:cx="606.71561"
     inkscape:cy="396.85039"
     inkscape:window-width="1366"
     inkscape:window-height="705"
     inkscape:window-x="-8"
     inkscape:window-y="-8"
     inkscape:window-maximized="1"
     inkscape:current-layer="layer1"><inkscape:page
       x="0"
       y="0"
       width="164.18227"
       height="164.22299"
       id="page2"
       margin="0"
       bleed="0" /></sodipodi:namedview><defs
     id="defs1" /><g
     inkscape:label="Camada 1"
     inkscape:groupmode="layer"
     id="layer1"
     transform="translate(-983.16263,-202.83757)"><path
       d="m 1072.0346,366.90443 c -3.6667,0.3293 -11.4667,0.1205 -17.3333,-0.464 -5.8667,-0.5845 -13.3379,-2.0185 -16.6028,-3.1868 -3.2648,-1.1682 -9.7224,-4.2415 -14.3502,-6.8295 -4.6278,-2.588 -11.6509,-7.8656 -15.6071,-11.728 -3.9561,-3.8625 -9.65489,-10.8318 -12.66399,-15.4875 -3.0091,-4.6556 -7.0088,-13.3119 -8.8882,-19.236 -2.7166,-8.5635 -3.4189,-13.5042 -3.4263,-24.1046 -0.01,-7.3333 0.7029,-16.3333 1.5734,-20 0.8704,-3.6667 3.9274,-11.5067 6.7933,-17.4223 2.8659,-5.9156 8.2189,-14.1308 11.89569,-18.256 3.6768,-4.1253 10.718,-10.1561 15.6473,-13.402 4.9292,-3.2458 12.2622,-7.1082 16.2955,-8.583 4.0334,-1.4748 11.7935,-3.4267 17.2447,-4.3375 6.1002,-1.0192 13.7907,-1.3074 20,-0.7494 5.5488,0.4987 14.1894,2.329 19.2015,4.0674 5.012,1.7384 12.4188,5.1532 16.4595,7.5884 4.0407,2.4353 11.4235,8.7096 16.4062,13.9429 5.8532,6.1477 10.7694,12.99 13.8911,19.3334 2.6574,5.3999 5.7134,14.0181 6.7912,19.1514 1.0777,5.1334 1.97,13.3461 1.9827,18.2506 0.013,4.9045 -0.9129,13.0045 -2.057,18 -1.1441,4.9955 -4.275,13.5828 -6.9575,19.0828 -3.6396,7.4623 -7.5949,12.7139 -15.5865,20.6946 -7.444,7.4339 -13.381,11.9973 -19.4722,14.9669 -4.8196,2.3497 -12.3196,5.1356 -16.6666,6.1908 -4.3471,1.0553 -10.9037,2.1881 -14.5704,2.5174 z m -30.7767,-35.0364 c 1.6062,0 4.7964,-1.95 7.0894,-4.3333 2.293,-2.3834 5.7421,-7.483 7.6647,-11.3326 1.9225,-3.8496 4.0602,-10.4496 4.7503,-14.6666 0.8254,-5.0437 0.7747,-10.3286 -0.1483,-15.4438 -0.7718,-4.277 -2.0368,-9.167 -2.8112,-10.8667 -0.7744,-1.6996 -3.889,-4.1924 -6.9214,-5.5395 -3.0324,-1.3471 -8.4048,-5.1279 -11.9388,-8.4019 -5.1634,-4.7835 -6.8655,-5.6814 -8.6666,-4.5717 -1.2328,0.7594 -4.208,4.6302 -6.6117,8.6018 -2.4037,3.9715 -5.0192,9.621 -5.8122,12.5543 -0.7931,2.9333 -1.1789,10.1333 -0.8573,16 0.451,8.2288 1.4321,12.3427 4.2928,18 2.0395,4.0333 6.7102,10.1833 10.3792,13.6667 3.7889,3.5971 7.9325,6.3333 9.5911,6.3333 z m 47.3542,0 c 1.2308,0 4.2038,-1.4505 6.6068,-3.2234 2.4029,-1.7728 5.8875,-5.2228 7.7434,-7.6666 1.8559,-2.4438 4.9278,-7.7433 6.8264,-11.7767 2.8707,-6.0984 3.4547,-9.2628 3.468,-18.7914 0.014,-10.192 -0.4512,-12.4071 -4.2123,-20.047 -2.3255,-4.7238 -5.7631,-10.0307 -7.6389,-11.793 l -3.4107,-3.2042 -5.0698,4.9506 c -2.7884,2.7228 -8.3295,6.6233 -12.3135,8.6677 -6.3636,3.2657 -7.5306,4.517 -9.606,10.3006 -1.7594,4.9027 -2.2261,9.3345 -1.8282,17.3593 0.3433,6.9246 1.5026,12.9649 3.2436,16.9009 1.4902,3.3687 5.2393,8.8696 8.3314,12.2241 3.0921,3.3545 6.629,6.0991 7.8598,6.0991 z m -24.1679,-68.1365 c 0.9586,0.075 4.3735,-0.5259 7.5886,-1.3355 3.2152,-0.8096 8.2809,-3.5563 11.2571,-6.1039 2.9763,-2.5475 5.4114,-5.5158 5.4114,-6.596 0,-1.0803 -2.1,-2.8416 -4.6667,-3.914 -2.5667,-1.0724 -4.6667,-2.7542 -4.6667,-3.7373 0,-0.9831 1.5,-3.4059 3.3334,-5.3841 1.8333,-1.9782 3.3333,-4.4658 3.3333,-5.5281 0,-1.0622 -0.4751,-1.9313 -1.0557,-1.9313 -0.5807,0 -3.6803,2.6742 -6.888,5.9427 -3.2078,3.2685 -7.5306,6.3157 -9.6064,6.7716 -2.0757,0.4559 -5.7634,0.1723 -8.195,-0.6301 -2.4315,-0.8025 -6.7554,-3.8497 -9.6085,-6.7716 -2.8532,-2.9219 -5.6658,-5.3126 -6.2503,-5.3126 -0.5845,0 -1.0628,0.8792 -1.0628,1.9536 0,1.0745 1.8358,4.0444 4.0795,6.5998 l 4.0794,4.6462 -5.4411,3.4349 c -4.3971,2.7757 -5.2036,3.8788 -4.203,5.7484 0.6811,1.2725 2.3438,3.2798 3.6951,4.4607 1.3512,1.1809 3.9568,2.9284 5.7901,3.8833 1.8334,0.9549 5.1334,2.1706 7.3334,2.7015 2.2,0.5309 4.7843,1.0268 5.7429,1.1018 z"
       style="fill:#9cc21d;fill-opacity:1"
       id="path1-73" /></g></svg>
