<?xml version="1.0" encoding="UTF-8" standalone="no"?>
<!-- Created with Inkscape (http://www.inkscape.org/) -->

<svg
   width="42.894604mm"
   height="42.992718mm"
   viewBox="0 0 162.12134 162.49217"
   version="1.1"
   id="svg1"
   xml:space="preserve"
   inkscape:version="1.4.2 (f4327f4, 2025-05-13)"
   sodipodi:docname="Tipos.svg"
   xmlns:inkscape="http://www.inkscape.org/namespaces/inkscape"
   xmlns:sodipodi="http://sodipodi.sourceforge.net/DTD/sodipodi-0.dtd"
   xmlns="http://www.w3.org/2000/svg"
   xmlns:svg="http://www.w3.org/2000/svg"><sodipodi:namedview
     id="namedview1"
     pagecolor="#505050"
     bordercolor="#eeeeee"
     borderopacity="1"
     inkscape:showpageshadow="0"
     inkscape:pageopacity="0"
     inkscape:pagecheckerboard="0"
     inkscape:deskcolor="#505050"
     inkscape:document-units="mm"
     inkscape:zoom="0.63374008"
     inkscape:cx="606.71561"
     inkscape:cy="396.85039"
     inkscape:window-width="1366"
     inkscape:window-height="705"
     inkscape:window-x="-8"
     inkscape:window-y="-8"
     inkscape:window-maximized="1"
     inkscape:current-layer="layer1"><inkscape:page
       x="0"
       y="-1.4097185e-14"
       width="162.12134"
       height="162.49217"
       id="page2"
       margin="0"
       bleed="0" /></sodipodi:namedview><defs
     id="defs1" /><g
     inkscape:label="Camada 1"
     inkscape:groupmode="layer"
     id="layer1"
     transform="translate(-1230.0306,10.30113)"><path
       d="m 1310.9213,152.18653 c -4.4,-0.073 -11.1496,-0.6576 -14.9992,-1.2991 -3.8496,-0.6415 -10.5609,-2.6136 -14.914,-4.3825 -4.3531,-1.7688 -11.2596,-5.4362 -15.3478,-8.1498 -4.0881,-2.7135 -10.6777,-8.5193 -14.6435,-12.90161 -3.9658,-4.38235 -9.3085,-11.96993 -11.8727,-16.86128 -2.5643,-4.89135 -5.68,-12.793371 -6.924,-17.560041 -1.3616,-5.21761 -2.2323,-13.44227 -2.1879,-20.66666 0.041,-6.6 0.9995,-15.44967 2.131,-19.66592 1.1314,-4.21626 4.2458,-12.01626 6.9207,-17.33333 3.4098,-6.77805 7.8981,-12.69236 15.0171,-19.78843 7.4254,-7.4014997 12.8407,-11.4266197 20.1537,-14.9799597 5.5,-2.67242 13.576,-5.76796 17.9468,-6.87899 4.3707,-1.11102 12.9841,-2.0200403 19.1409,-2.0200403 6.1567,0 14.8704,0.9526403 19.3637,2.1169803 4.4933,1.16433 11.7799,3.90701 16.1925,6.09483 4.4125,2.18782002 11.1763,6.35726 15.0305,9.26542 3.8543,2.9081697 9.4557,8.3843497 12.4475,12.1692897 2.9918,3.78495 7.1371,10.24424 9.2117,14.35397 2.0746,4.10974 4.8457,11.04089 6.1581,15.40255 1.6293,5.41499 2.3922,12.37076 2.4053,21.93029 0.015,10.70422 -0.6671,16.19719 -2.8961,23.33334 -1.6035,5.13333 -5.1835,13.148441 -7.9556,17.811361 -2.7721,4.66291 -9.3232,12.54645 -14.558,17.51903 -6.1228,5.816 -13.0198,10.7643 -19.3359,13.8725 -5.3999,2.6575 -14.0181,5.7135 -19.1514,6.7913 -5.1334,1.0777 -12.9334,1.8998 -17.3334,1.8268 z m -43.9457,-41.15433 c 0.2169,0 1.3434,-0.36419 2.5034,-0.80931 1.8257,-0.70059 2.109,-4.3847 2.109,-27.421901 v -26.61258 l -3.5981,0.4219 c -3.1325,0.3673 -4.1596,1.80209 -7.9377,11.08856 -2.3867,5.86667 -4.3676,12.60105 -4.4019,14.96529 -0.034,2.36425 1.7901,8.96425 4.0542,14.66667 2.2641,5.702421 4.7375,11.118041 5.4966,12.034711 0.7591,0.91666 1.5576,1.66666 1.7745,1.66666 z m 52.9518,0 c 25.5434,0 35.5638,-0.43653 36.7273,-1.6 1.1671,-1.16714 1.6,-11.555551 1.6,-38.400001 0,-26.84444 -0.4329,-37.23285 -1.6,-38.4 -0.88,-0.88 -3.5066,-1.6 -5.8368,-1.6 -2.3302,0 -4.887,0.78361 -5.6819,1.74135 -0.7948,0.95774 -1.6183,7.70774 -1.8299,15 -0.3552,12.24152 -0.5893,13.25865 -3.0514,13.25865 -2.4621,0 -2.6962,-1.01713 -3.0514,-13.25865 -0.2116,-7.29226 -1.0351,-14.04226 -1.8299,-15 -0.7949,-0.95774 -3.1227,-1.74135 -5.1729,-1.74135 -2.0503,0 -4.6768,0.3642 -5.8368,0.80932 -1.7193,0.65978 -2.1128,3.1851 -2.1294,13.66667 -0.011,7.07154 -0.5507,13.69478 -1.1988,14.7183 -0.6481,1.02353 -2.1389,1.49236 -3.3129,1.04185 -1.7569,-0.67419 -2.1346,-3.13832 -2.1346,-13.92762 0,-8.41774 -0.5725,-13.68106 -1.6,-14.70852 -0.88,-0.88 -3.8589,-1.6 -6.6197,-1.6 -3.5983,0 -5.4106,0.73032 -6.4,2.57902 -0.7592,1.41845 -1.3803,8.36245 -1.3803,15.43109 0,11.52058 -0.2417,12.80603 -2.3333,12.40747 -1.9816,-0.37759 -2.4339,-2.45263 -3,-13.76443 -0.3667,-7.3259 -1.1521,-14.06981 -1.7454,-14.98648 -0.5933,-0.91667 -2.9933,-1.65748 -5.3333,-1.64625 -2.3401,0.0112 -5.1547,0.58866 -6.2547,1.28318 -1.6789,1.06002 -2.0634,6.94329 -2.3954,36.6447 l -0.3955,35.381951 3.3349,3.33488 3.3348,3.33487 z"
       style="fill:#c80000;fill-opacity:1"
       id="path1-24" /></g></svg>
