<?xml version="1.0" encoding="UTF-8" standalone="no"?>
<!-- Created with Inkscape (http://www.inkscape.org/) -->

<svg
   width="43.380951mm"
   height="43.238197mm"
   viewBox="0 0 163.9595 163.41997"
   version="1.1"
   id="svg1"
   xml:space="preserve"
   inkscape:version="1.4.2 (f4327f4, 2025-05-13)"
   sodipodi:docname="Tipos.svg"
   xmlns:inkscape="http://www.inkscape.org/namespaces/inkscape"
   xmlns:sodipodi="http://sodipodi.sourceforge.net/DTD/sodipodi-0.dtd"
   xmlns="http://www.w3.org/2000/svg"
   xmlns:svg="http://www.w3.org/2000/svg"><sodipodi:namedview
     id="namedview1"
     pagecolor="#505050"
     bordercolor="#eeeeee"
     borderopacity="1"
     inkscape:showpageshadow="0"
     inkscape:pageopacity="0"
     inkscape:pagecheckerboard="0"
     inkscape:deskcolor="#505050"
     inkscape:document-units="mm"
     inkscape:zoom="0.63374008"
     inkscape:cx="606.71561"
     inkscape:cy="396.85039"
     inkscape:window-width="1366"
     inkscape:window-height="705"
     inkscape:window-x="-8"
     inkscape:window-y="-8"
     inkscape:window-maximized="1"
     inkscape:current-layer="layer1"><inkscape:page
       x="0"
       y="4.9766918e-13"
       width="163.9595"
       height="163.41997"
       id="page2"
       margin="0"
       bleed="0" /></sodipodi:namedview><defs
     id="defs1" /><g
     inkscape:label="Camada 1"
     inkscape:groupmode="layer"
     id="layer1"
     transform="translate(-491.97597,-220.61581)"><path
       d="m 577.7745,383.93943 c -6.51924,0.3333 -14.61232,-0.2158 -20.2077,-1.3708 -5.13333,-1.0596 -14.39849,-4.429 -20.58924,-7.4876 -8.41373,-4.1568 -13.63744,-7.9536 -20.68753,-15.0363 -5.95556,-5.9831 -11.22485,-12.9151 -14.29718,-18.8086 -2.67606,-5.1333 -5.78928,-12.9333 -6.91827,-17.3333 -1.12899,-4.4 -2.42345,-11.9 -2.87659,-16.6667 -0.53497,-5.6275 -0.0973,-12.4072 1.24823,-19.3333 1.2475,-6.4218 4.28673,-15.1589 7.63707,-21.9549 4.25701,-8.6351 7.95185,-13.6751 15.72046,-21.4437 7.36343,-7.3634 12.89669,-11.5045 20.12594,-15.0624 5.48374,-2.6988 14.17044,-5.7887 19.30378,-6.8665 5.13333,-1.0777 13.23333,-1.9595 18,-1.9595 4.76666,0 12.7892,0.8734 17.82786,1.9409 5.03866,1.0675 13.73866,4.1904 19.33333,6.9398 7.43284,3.6528 12.87241,7.7018 20.19935,15.0359 6.55649,6.5629 11.70914,13.2676 14.88642,19.3704 2.67257,5.1333 5.90863,13.2333 7.19124,18 1.44688,5.3771 2.30554,13.2214 2.26223,20.6666 -0.0505,8.6868 -0.96651,15.0046 -3.31754,22.8821 -1.78626,5.9851 -5.30315,14.364 -7.81532,18.6198 -2.51216,4.2557 -8.51913,11.6827 -13.3488,16.5045 -5.34267,5.3338 -12.39112,10.6448 -18,13.5629 -5.07033,2.6379 -12.72531,5.7972 -17.01108,7.0206 -4.28577,1.2234 -12.68577,2.4745 -18.66666,2.7801 z m -7.87144,-32.8693 c 11.54839,-0.095 23.62989,-0.5458 26.84777,-1.0029 l 5.8507,-0.8311 11.90617,-20.6667 c 6.54839,-11.3666 12.55633,-22.0044 13.35097,-23.6395 1.25581,-2.584 -0.17886,-5.8106 -10.96772,-24.6667 -6.82688,-11.9315 -13.31063,-22.7437 -14.40832,-24.0271 -1.77538,-2.0756 -4.89515,-2.3333 -28.24916,-2.3333 -23.34159,0 -26.47834,0.2588 -28.28179,2.3333 -1.11564,1.2834 -7.50863,11.878 -14.20665,23.5437 -6.69803,11.6656 -12.17823,21.7939 -12.17823,22.5072 0,0.7133 5.50449,10.9231 12.23221,22.6885 6.72771,11.7654 13.32903,22.4885 14.66959,23.8291 2.1707,2.1707 4.73478,2.4186 23.43446,2.2655 z m 3.66374,-22.5833 c -3.66667,-0.013 -8.46667,-0.9731 -10.66667,-2.1329 -2.2,-1.1598 -5.42915,-3.3858 -7.17589,-4.9466 -1.74674,-1.5608 -4.28356,-5.2379 -5.63738,-8.1712 -1.35382,-2.9333 -2.42902,-7.7333 -2.38934,-10.6667 0.0397,-2.9333 0.78013,-7.2851 1.64544,-9.6706 0.86531,-2.3855 3.2906,-6.1567 5.38955,-8.3806 2.09894,-2.2238 5.63155,-4.982 7.85023,-6.1294 2.27857,-1.1783 7.34845,-2.086 11.65073,-2.086 4.20296,0 9.34601,0.9028 11.47504,2.0143 2.12206,1.1078 5.47646,3.7178 7.45423,5.8 1.97776,2.0821 4.52776,6.0164 5.66666,8.7429 1.13891,2.7264 2.06739,6.6264 2.0633,8.6666 -0.004,2.0402 -0.62715,5.9409 -1.38457,8.6681 -0.75743,2.7272 -2.97926,6.8626 -4.93741,9.1897 -1.95814,2.3272 -5.98509,5.3326 -8.94876,6.6788 -2.96824,1.3483 -8.38284,2.4369 -12.05516,2.4236 z"
       style="fill:#a6a9c5;fill-opacity:1"
       id="path1-7" /></g></svg>
