<?xml version="1.0" encoding="UTF-8" standalone="no"?>
<!-- Created with Inkscape (http://www.inkscape.org/) -->

<svg
   width="42.411175mm"
   height="42.489388mm"
   viewBox="0 0 160.29421 160.58982"
   version="1.1"
   id="svg1"
   xml:space="preserve"
   inkscape:version="1.4.2 (f4327f4, 2025-05-13)"
   sodipodi:docname="Tipos.svg"
   xmlns:inkscape="http://www.inkscape.org/namespaces/inkscape"
   xmlns:sodipodi="http://sodipodi.sourceforge.net/DTD/sodipodi-0.dtd"
   xmlns="http://www.w3.org/2000/svg"
   xmlns:svg="http://www.w3.org/2000/svg"><sodipodi:namedview
     id="namedview1"
     pagecolor="#505050"
     bordercolor="#eeeeee"
     borderopacity="1"
     inkscape:showpageshadow="0"
     inkscape:pageopacity="0"
     inkscape:pagecheckerboard="0"
     inkscape:deskcolor="#505050"
     inkscape:document-units="mm"
     inkscape:zoom="0.63374008"
     inkscape:cx="606.71561"
     inkscape:cy="396.85039"
     inkscape:window-width="1366"
     inkscape:window-height="705"
     inkscape:window-x="-8"
     inkscape:window-y="-8"
     inkscape:window-maximized="1"
     inkscape:current-layer="layer1"><inkscape:page
       x="0"
       y="0"
       width="160.2942"
       height="160.58981"
       id="page2"
       margin="0"
       bleed="0" /></sodipodi:namedview><defs
     id="defs1" /><g
     inkscape:label="Camada 1"
     inkscape:groupmode="layer"
     id="layer1"
     transform="translate(-1026.2713,13.92704)"><path
       d="m 1112.0963,146.44218 c -5.1334,0.25129 -10.8334,0.29447 -12.6667,0.0955 -1.8333,-0.19866 -6.6333,-1.00824 -10.6667,-1.79902 -4.0333,-0.79088 -12.4333,-3.86317 -18.6666,-6.82743 -8.5116,-4.0476 -13.5116,-7.56975 -20.0819,-14.14598 -4.8118,-4.81607 -10.6764,-12.13748 -13.0326,-16.26982 -2.3562,-4.13235 -5.5126,-10.996579 -7.0144,-15.253855 -1.641,-4.652257 -3.0335,-12.868055 -3.4902,-20.592473 -0.4636,-7.841708 -0.1296,-16.115274 0.8566,-21.22274 0.889,-4.603919 3.9754,-13.26242 6.8588,-19.241105 3.2274,-6.691949 8.106,-13.947172 12.692,-18.874914 4.0972,-4.4025183 11.1459,-10.4174647 15.6639,-13.366567 4.5179,-2.9490925 12.7968,-6.8098542 18.3975,-8.5794731 5.6007,-1.7696089 14.6007,-3.5909079 20,-4.0473299 6.6278,-0.56027 13.246,-0.158772 20.3724,1.23592 5.8054,1.136179 14.3672,3.8402987 19.0261,6.0091569 4.6589,2.1688582 11.946,6.60366859 16.1935,9.8551254 4.2475,3.2514667 10.1688,9.0970257 13.1583,12.9901387 2.9895,3.893113 6.9257,10.062833 8.7471,13.710495 1.8214,3.647653 4.3954,10.213439 5.72,14.590629 1.6313,5.39064 2.4064,12.238347 2.4022,21.222749 0,8.482678 -0.8512,16.372216 -2.3501,21.885954 -1.289,4.74195 -4.2432,12.193479 -6.5648,16.558939 -2.3216,4.36547 -8.0453,11.97745 -12.7194,16.91554 -4.6741,4.93808 -11.8798,11.02188 -16.0128,13.51947 -4.133,2.49758 -12.0087,6.03346 -17.5017,7.85735 -5.5805,1.85305 -14.1054,3.51797 -19.3205,3.77334 z m -2.5282,-28.71216 c 7.3381,-0.38531 11.3662,-1.44868 17.8814,-4.72047 4.6252,-2.32272 11.5384,-7.16696 15.3626,-10.76497 4.3893,-4.1297 8.3661,-9.585092 10.7853,-14.795322 3.3696,-7.257144 3.8322,-9.774665 3.8322,-20.854498 0,-11.359049 -0.4079,-13.450759 -4.1388,-21.22274 -2.3808,-4.959526 -6.9968,-11.438823 -10.8672,-15.253843 -3.7006,-3.647662 -10.2381,-8.421983 -14.5278,-10.609604 -7.2031,-3.673348 -8.87,-3.977632 -21.7995,-3.979264 -13.6803,-0.002 -14.2004,0.110425 -22.7737,4.911308 -4.8255,2.702199 -11.1406,7.477316 -14.0335,10.611374 -2.8929,3.134059 -6.5376,7.7874 -8.0992,10.340765 -1.5617,2.553365 -3.7966,7.884484 -4.9665,11.846936 -1.1699,3.962452 -2.1206,9.931348 -2.1127,13.264211 0.01,3.332863 0.8555,8.816498 1.8835,12.18586 1.0279,3.369353 3.1641,8.651478 4.7469,11.738044 1.5829,3.086576 5.3634,8.294318 8.4011,11.572763 3.0377,3.27845 8.9975,7.70563 13.2441,9.83818 4.2466,2.13253 9.9686,4.44239 12.7155,5.13298 2.747,0.6906 9.2568,1.03182 14.4663,0.75829 z m -3.3013,-22.005902 c -4.1271,-0.02855 -9.3039,-0.834183 -11.5039,-1.790281 -2.2,-0.956098 -6.0353,-3.444819 -8.523,-5.530501 -2.4877,-2.085672 -5.6245,-6.204389 -6.9707,-9.152696 -1.3646,-2.988487 -2.4606,-8.46089 -2.477,-12.366876 -0.016,-3.85347 0.9026,-9.225477 2.0415,-11.937793 1.1389,-2.712306 3.6889,-6.627584 5.6666,-8.700612 1.9778,-2.073027 5.996,-5.001278 8.9293,-6.507221 3.3749,-1.732651 8.051,-2.777904 12.7344,-2.846527 5.4456,-0.07978 9.1446,0.778066 14,3.246742 4.3861,2.230059 8.0265,5.46154 10.8561,9.636504 2.3414,3.454728 4.6508,8.893268 5.132,12.085643 0.5749,3.813518 0.132,8.347014 -1.2914,13.217723 -1.4108,4.827762 -3.7979,9.036531 -6.8443,12.067138 -2.5729,2.559543 -6.8307,5.548537 -9.4619,6.642198 -2.6311,1.093661 -8.1606,1.96511 -12.2877,1.936559 z"
       style="fill:#aeab8f;fill-opacity:1;stroke-width:0.997405"
       id="path1-01" /></g></svg>
