<?xml version="1.0" encoding="UTF-8" standalone="no"?>
<!-- Created with Inkscape (http://www.inkscape.org/) -->

<svg
   width="43.165432mm"
   height="43.20472mm"
   viewBox="0 0 163.14494 163.29343"
   version="1.1"
   id="svg1"
   xml:space="preserve"
   inkscape:version="1.4.2 (f4327f4, 2025-05-13)"
   sodipodi:docname="Tipos.svg"
   xmlns:inkscape="http://www.inkscape.org/namespaces/inkscape"
   xmlns:sodipodi="http://sodipodi.sourceforge.net/DTD/sodipodi-0.dtd"
   xmlns="http://www.w3.org/2000/svg"
   xmlns:svg="http://www.w3.org/2000/svg"><sodipodi:namedview
     id="namedview1"
     pagecolor="#505050"
     bordercolor="#eeeeee"
     borderopacity="1"
     inkscape:showpageshadow="0"
     inkscape:pageopacity="0"
     inkscape:pagecheckerboard="0"
     inkscape:deskcolor="#505050"
     inkscape:document-units="mm"
     inkscape:zoom="0.63374008"
     inkscape:cx="606.71561"
     inkscape:cy="396.85039"
     inkscape:window-width="1366"
     inkscape:window-height="705"
     inkscape:window-x="-8"
     inkscape:window-y="-8"
     inkscape:window-maximized="1"
     inkscape:current-layer="layer1"><inkscape:page
       x="0"
       y="1.0587912e-22"
       width="163.14494"
       height="163.29343"
       id="page2"
       margin="0"
       bleed="0" /></sodipodi:namedview><defs
     id="defs1" /><g
     inkscape:label="Camada 1"
     inkscape:groupmode="layer"
     id="layer1"
     transform="translate(-234.24987,-22.384289)"><path
       d="m 320.17878,185.48599 c -6.29786,0.2885 -13.25065,0.2465 -15.45065,-0.093 -2.2,-0.34 -7.3,-1.5434 -11.33334,-2.6742 -4.03333,-1.1308 -11.53333,-4.2427 -16.66666,-6.9155 -5.92194,-3.0833 -12.75236,-8.2786 -18.68754,-14.2137 -5.93517,-5.93521 -11.13039,-12.76564 -14.21374,-18.68757 -2.67275,-5.13334 -5.94119,-12.93334 -7.26319,-17.33334 -1.723,-5.73461 -2.37686,-12.15321 -2.30904,-22.66666 0.0785,-12.168377 0.67864,-16.332557 3.52327,-24.446567 1.88576,-5.37894 5.42101,-13.08277 7.85611,-17.11962 2.4351,-4.03684 7.94069,-10.89421 12.23465,-15.23858 4.29395,-4.34438 11.39396,-10.00102 15.77781,-12.57032 4.38384,-2.5693 11.67061,-5.9646 16.19281,-7.5451 5.69753,-1.99128 12.54887,-3.05039 22.3131,-3.44926 10.17858,-0.4158 16.47195,0.0221 22.66666,1.57718 4.71667,1.18403 13.06246,4.34701 18.54621,7.02883 7.30984,3.57488 12.65036,7.57398 20.01327,14.98641 5.78885,5.82778 11.81755,13.49903 14.23262,18.11036 2.30439,4.4 5.44842,12.1132 6.98673,17.14045 2.00267,6.54478 2.79694,12.73759 2.79694,21.807537 0,7.23432 -0.90716,16.18074 -2.11514,20.85955 -1.16333,4.50585 -4.48368,12.75305 -7.37855,18.32711 -3.34343,6.43776 -8.3663,13.24695 -13.76966,18.66669 -4.67843,4.6926 -11.80713,10.5244 -15.84155,12.9595 -4.03442,2.4351 -11.68347,5.8985 -16.99789,7.6965 -6.2733,2.1224 -13.67906,3.4531 -21.11323,3.7938 z m 6.72656,-35.35586 c 1.19747,0.0576 5.54747,-3.84328 9.66667,-8.6686 4.1192,-4.82531 7.48945,-9.53903 7.48945,-10.47493 0,-0.93589 -2.12748,-4.4879 -4.72774,-7.89336 -2.60026,-3.40545 -5.45026,-6.19769 -6.33333,-6.20497 -0.88308,-0.007 -8.94075,4.94271 -17.90595,11 -8.96519,6.05728 -16.12788,11.57516 -15.91709,12.26195 0.21079,0.68679 6.04594,3.18967 12.96701,5.56196 6.92107,2.37228 13.56351,4.36036 14.76098,4.41795 z m -44.48139,-14.66722 c 1.76135,0.0612 12.21127,-6.03242 24.96803,-14.55952 12.06638,-8.06563 22.77641,-16.01563 23.80007,-17.66667 1.02365,-1.65103 4.74169,-10.348227 8.26231,-19.327097 3.52061,-8.97887 5.95211,-16.77422 5.40332,-17.32301 -0.54879,-0.54878 -10.40244,-0.82194 -21.89701,-0.607 -11.49456,0.21493 -21.79921,0.71731 -22.89921,1.11639 -1.1,0.39908 -9.73688,9.09516 -19.19307,19.32463 l -17.19307,18.599027 0.81887,10.61889 c 0.45038,5.84039 1.43039,11.76151 2.17779,13.15805 0.74741,1.39654 3.9158,3.44409 7.04087,4.55011 3.12507,1.10601 7.04506,2.0583 8.7111,2.1162 z m 69.74582,-13.22807 c 0.54912,0 3.52189,-2.85 6.60617,-6.33333 3.08428,-3.48334 6.42332,-7.55977 7.42008,-9.05875 1.58516,-2.38383 1.2255,-4.63665 -2.86977,-17.975297 -2.57513,-8.38744 -5.25317,-15.82101 -5.9512,-16.51903 -0.69803,-0.69803 -1.48156,-1.00915 -1.74117,-0.69137 -0.25962,0.31778 -3.6376,8.53516 -7.50663,18.26085 l -7.03459,17.683077 5.03936,7.31692 c 2.77164,4.02431 5.48863,7.31693 6.03775,7.31693 z"
       style="fill:#c79101;fill-opacity:1"
       id="path1-2" /></g></svg>
