<?xml version="1.0" encoding="UTF-8" standalone="no"?>
<!-- Created with Inkscape (http://www.inkscape.org/) -->

<svg
   width="42.698029mm"
   height="42.633221mm"
   viewBox="0 0 161.37838 161.13344"
   version="1.1"
   id="svg1"
   xml:space="preserve"
   inkscape:version="1.4.2 (f4327f4, 2025-05-13)"
   sodipodi:docname="Tipos.svg"
   xmlns:inkscape="http://www.inkscape.org/namespaces/inkscape"
   xmlns:sodipodi="http://sodipodi.sourceforge.net/DTD/sodipodi-0.dtd"
   xmlns="http://www.w3.org/2000/svg"
   xmlns:svg="http://www.w3.org/2000/svg"><sodipodi:namedview
     id="namedview1"
     pagecolor="#505050"
     bordercolor="#eeeeee"
     borderopacity="1"
     inkscape:showpageshadow="0"
     inkscape:pageopacity="0"
     inkscape:pagecheckerboard="0"
     inkscape:deskcolor="#505050"
     inkscape:document-units="mm"
     inkscape:zoom="0.63374008"
     inkscape:cx="606.71561"
     inkscape:cy="396.85039"
     inkscape:window-width="1366"
     inkscape:window-height="705"
     inkscape:window-x="-8"
     inkscape:window-y="-8"
     inkscape:window-maximized="1"
     inkscape:current-layer="layer1"><inkscape:page
       x="0"
       y="0"
       width="161.37839"
       height="161.13344"
       id="page2"
       margin="0"
       bleed="0" /></sodipodi:namedview><defs
     id="defs1" /><g
     inkscape:label="Camada 1"
     inkscape:groupmode="layer"
     id="layer1"
     transform="translate(-238.7218,-243.94545)"><g
       id="g448"
       transform="translate(-21.241764,-399.01035)"
       style="fill:#3ccd03;fill-opacity:1"><path
         style="fill:#3ccd03;fill-opacity:1"
         d="m 343.79835,803.9448 c -10.86609,0.41579 -15.94004,-0.0176 -22.66666,-1.9362 -4.76667,-1.35955 -10.88506,-3.41974 -13.59642,-4.57821 -2.71136,-1.15846 -8.43297,-4.48529 -12.7147,-7.39295 -4.28172,-2.90767 -9.99454,-7.73242 -12.69516,-10.72168 -2.70061,-2.98926 -7.06225,-8.67623 -9.69253,-12.63771 -2.63028,-3.96149 -6.28951,-11.63056 -8.13163,-17.04238 -2.01574,-5.92187 -3.65185,-14.39691 -4.10914,-21.28524 -0.54991,-8.28339 -0.13129,-14.27073 1.51522,-21.67144 1.25127,-5.62424 4.41002,-14.49347 7.01945,-19.7094 2.82019,-5.63724 8.25745,-13.20752 13.4063,-18.66557 4.76404,-5.05013 12.04341,-11.23623 16.17638,-13.74687 4.13297,-2.51065 12.1995,-6.13752 17.92563,-8.05972 8.32441,-2.79441 13.00901,-3.50413 23.37244,-3.54094 7.91284,-0.0281 16.31678,0.81984 21.57607,2.17698 4.73811,1.22265 12.81475,4.4125 17.94809,7.08856 5.91062,3.08126 12.829,8.34522 18.86562,14.3542 7.36272,7.329 10.74218,12.03754 14.84807,20.68753 2.92368,6.15939 6.03699,14.19889 6.91847,17.86556 0.88147,3.66666 1.59153,12.36666 1.57789,19.33333 -0.0193,9.84348 -0.7852,15.06739 -3.43649,23.43788 -1.87643,5.92417 -5.84121,14.53014 -8.81061,19.12438 -2.9694,4.59424 -8.32182,11.14719 -11.89426,14.56212 -3.57245,3.41492 -9.85443,8.23526 -13.95996,10.71186 -4.10553,2.4766 -11.50953,5.98955 -16.45333,7.80656 -6.81175,2.50353 -12.3794,3.43338 -22.98874,3.83935 z m -9.02799,-22.23027 c 3.46793,0.0448 10.06793,-1.15473 14.66666,-2.66563 4.59873,-1.51089 11.20698,-4.81356 14.68498,-7.33926 3.47801,-2.5257 8.42895,-7.76299 11.0021,-11.63843 2.57315,-3.87544 5.86635,-10.42605 7.31824,-14.55692 1.45188,-4.13086 3.24592,-12.8614 3.98676,-19.4012 0.89134,-7.86835 0.90667,-16.51168 0.0453,-25.55171 -0.71591,-7.51365 -1.91741,-15.94793 -2.67001,-18.74286 -0.75259,-2.79492 -2.31091,-5.44337 -3.46292,-5.88544 -1.15202,-0.44207 -5.79551,-0.79188 -10.31886,-0.77735 -4.52336,0.0145 -12.42429,0.62596 -17.55762,1.35874 -5.13333,0.73278 -12.93333,2.22701 -17.33333,3.32052 -4.4,1.0935 -12.4713,4.17479 -17.93621,6.8473 -5.79684,2.83484 -12.63556,7.55848 -16.41577,11.33869 -3.56376,3.56376 -8.09247,9.92104 -10.0638,14.12728 -3.10187,6.61852 -3.58422,9.35236 -3.58422,20.31439 0,11.40741 0.39766,13.46199 4,20.66667 2.2,4.4 4.98938,8.18232 6.19862,8.40515 1.20925,0.22284 4.05647,-1.57716 6.32717,-4 l 4.12853,-4.40515 0.006,-20.33334 c 0.004,-11.62784 0.53655,-20.33333 1.24498,-20.33333 0.68134,0 1.93745,3.45 2.79136,7.66667 0.85391,4.21666 2.14501,10.51126 2.86911,13.988 0.7241,3.47674 1.95815,6.71787 2.74233,7.20252 0.78419,0.48465 4.93563,-2.75021 9.22543,-7.18859 l 7.79963,-8.06978 v -12.72072 c 0,-6.9964 0.5568,-13.06484 1.23734,-13.48544 0.68053,-0.42059 1.54854,0.294 1.92891,1.58798 0.38036,1.29398 1.08632,4.58132 1.5688,7.30519 0.48248,2.72387 1.59998,5.55231 2.48333,6.28543 1.15769,0.9608 4.55334,-1.6317 12.16257,-9.28583 5.80607,-5.84032 11.32057,-10.61876 12.25444,-10.61876 0.93387,0 1.69794,0.36539 1.69794,0.81199 0,0.4466 -3.94747,6.19018 -8.77216,12.7635 -4.9804,6.78549 -8.45648,12.77415 -8.04184,13.85467 0.51085,1.33127 2.94654,1.90317 8.10549,1.90317 4.05635,0 7.37518,0.57687 7.37518,1.28194 0,0.70507 -2.25,1.85576 -5,2.5571 -2.75,0.70134 -7.1,1.66198 -9.66667,2.13476 -2.56666,0.47278 -6.16666,1.44761 -8,2.1663 -1.83333,0.71868 -5.91705,4.93001 -9.07493,9.35851 -3.15788,4.42849 -5.50541,8.75296 -5.21673,9.60993 0.35546,1.05525 5.00566,1.55813 14.40826,1.55813 8.10561,0 14.0464,0.55488 14.27506,1.33333 0.21893,0.7453 -7.71946,2.69171 -18,4.41341 -17.59261,2.94626 -18.58355,3.28245 -22.80837,7.73807 -2.80371,2.95688 -4.26453,5.71221 -4,7.54465 0.31866,2.20743 2.14225,3.4264 7.75005,5.18048 4.03333,1.26159 10.17073,2.33046 13.63867,2.37527 z"
         id="path449" /></g></g></svg>
