<?xml version="1.0" encoding="UTF-8" standalone="no"?>
<!-- Created with Inkscape (http://www.inkscape.org/) -->

<svg
   width="42.831512mm"
   height="42.802395mm"
   viewBox="0 0 161.88288 161.77284"
   version="1.1"
   id="svg1"
   xml:space="preserve"
   inkscape:version="1.4.2 (f4327f4, 2025-05-13)"
   sodipodi:docname="Tipos.svg"
   xmlns:inkscape="http://www.inkscape.org/namespaces/inkscape"
   xmlns:sodipodi="http://sodipodi.sourceforge.net/DTD/sodipodi-0.dtd"
   xmlns="http://www.w3.org/2000/svg"
   xmlns:svg="http://www.w3.org/2000/svg"><sodipodi:namedview
     id="namedview1"
     pagecolor="#505050"
     bordercolor="#eeeeee"
     borderopacity="1"
     inkscape:showpageshadow="0"
     inkscape:pageopacity="0"
     inkscape:pagecheckerboard="0"
     inkscape:deskcolor="#505050"
     inkscape:document-units="mm"
     inkscape:zoom="0.63374008"
     inkscape:cx="606.71561"
     inkscape:cy="396.85039"
     inkscape:window-width="1366"
     inkscape:window-height="705"
     inkscape:window-x="-8"
     inkscape:window-y="-8"
     inkscape:window-maximized="1"
     inkscape:current-layer="layer1"><inkscape:page
       x="1.5319356e-12"
       y="-1.4223916e-14"
       width="161.88287"
       height="161.77284"
       id="page2"
       margin="0"
       bleed="0" /></sodipodi:namedview><defs
     id="defs1" /><g
     inkscape:label="Camada 1"
     inkscape:groupmode="layer"
     id="layer1"
     transform="translate(-743.55405,10.550804)"><path
       d="m 822.86971,151.22183 c -10.29166,-0.023 -14.76764,-0.7229 -23.44685,-3.6666 -5.89984,-2.0011 -14.21024,-5.7383 -18.46756,-8.305 -4.25732,-2.5667 -11.28121,-8.4397 -15.60864,-13.05119 -4.32743,-4.6115 -9.6616,-11.5115 -11.85371,-15.33334 -2.19211,-3.82183 -5.34108,-10.84878 -6.99771,-15.615441 -2.52799,-7.27383 -2.99981,-11.34521 -2.9358,-25.33334 0.0631,-13.79618 0.60001,-18.15931 3.11726,-25.33333 1.67255,-4.76667 5.22274,-12.26667 7.8893,-16.66667 2.66657,-4.4 8.53833,-11.63602 13.04836,-16.08005 4.58185,-4.5147797 12.24526,-10.1981697 17.36778,-12.8804097 5.04224,-2.6402 12.7677,-5.85856 17.1677,-7.15191 5.28886,-1.55463 12.51858,-2.3528403 21.33334,-2.3553503 8.55758,-0.002 16.40347,0.8321803 21.9048,2.3301703 4.71431,1.28369 11.61431,3.87236 15.33333,5.75262 3.71903,1.88025002 10.19998,6.11523 14.40213,9.41106 4.20214,3.2958297 10.01977,9.0767197 12.92807,12.8464097 2.9083,3.7697 7.13113,10.79306 9.38406,15.60748 2.25294,4.81441 4.97489,12.90094 6.04878,17.97006 1.07389,5.06913 1.95252,12.81659 1.95252,17.21659 0,4.4 -0.87342,12.12254 -1.94093,17.16119 -1.06752,5.03866 -4.19044,13.738661 -6.93984,19.333341 -3.63639,7.39962 -7.74268,12.92782 -15.06547,20.28252 -7.37139,7.40339 -12.736,11.41409 -20.03701,14.97989 -5.48374,2.6783 -13.5465,5.7786 -17.91724,6.8897 -4.42088,1.1237 -13.59048,2.0074 -20.66667,1.9916 z m -20.71987,-31.33669 c 2.2,-0.3847 5.47698,-2.1756 7.28216,-3.9796 l 3.28216,-3.2802 3.68942,3.5347 c 2.36033,2.2613 5.16973,3.5347 7.79865,3.5347 2.66782,0 5.3491,-1.2399 7.64392,-3.5347 l 3.53468,-3.5347 3.43274,3.2888 c 1.88801,1.8088 5.30109,3.6624 7.58463,4.1191 3.48918,0.6979 4.96235,0.088 9.22945,-3.8228 4.82968,-4.4261 5.06869,-5.0324 4.89577,-12.41794 -0.16707,-7.135741 0.2006,-8.187921 4.53921,-12.990241 2.59655,-2.87408 5.9829,-7.99903 7.52521,-11.3888 1.93802,-4.25945 2.79996,-8.84025 2.79044,-14.82987 -0.01,-6.13636 -0.91218,-10.69161 -3.09097,-15.60239 -1.83494,-4.13576 -5.98116,-9.68216 -10.27048,-13.73882 -3.9563,-3.7417 -10.34486,-8.23914 -14.19679,-9.9943 -3.85194,-1.75516 -10.75353,-3.78935 -15.33686,-4.52043 -5.45668,-0.87037 -11.20999,-0.88183 -16.66667,-0.0332 -4.58333,0.71282 -12.02854,3.09011 -16.5449,5.28286 -5.33251,2.589 -10.76223,6.74184 -15.4865,11.84461 -5.92414,6.39878 -7.71327,9.47716 -9.63572,16.57923 -1.58684,5.86228 -2.06334,10.58151 -1.45349,14.3953 0.499,3.12061 2.01268,8.17278 3.36372,11.22703 1.35104,3.05425 4.67947,8.01381 7.39651,11.02125 4.48933,4.96915 4.85862,5.95017 4.04737,10.751881 -0.63266,3.74471 -0.2291,6.68222 1.38546,10.08462 1.25298,2.6405 3.84927,5.6789 5.76952,6.7521 2.0072,1.1218 5.19175,1.6539 7.49136,1.2518 z m 24.66667,-29.162131 c -4.76667,0.22641 -10.46667,-0.0639 -12.66667,-0.64515 -2.2,-0.58124 -6.4,-2.29684 -9.33333,-3.81245 -2.93333,-1.5156 -6.6547,-4.17222 -8.26969,-5.90359 -1.615,-1.73138 -3.91726,-5.49557 -5.11614,-8.36488 -1.5259,-3.65199 -1.91577,-6.97738 -1.2997,-11.08563 0.61252,-4.08459 2.34286,-7.48784 5.69185,-11.19476 2.64648,-2.92934 7.25271,-6.63096 10.23606,-8.22583 4.47693,-2.39332 7.63653,-2.89976 18.09095,-2.89976 10.44344,0 13.60277,0.5054 18,2.87948 2.93334,1.58371 7.22918,4.88205 9.54633,7.32964 2.31715,2.4476 4.92428,6.87388 5.79363,9.83619 1.18726,4.04557 1.20848,6.76811 0.0853,10.93937 -0.82245,3.05435 -3.05774,7.41014 -4.96731,9.67954 -1.90957,2.2694 -6.54379,5.68542 -10.29826,7.59117 -4.78388,2.42826 -9.4194,3.58816 -15.49299,3.87666 z"
       style="fill:#ad01ca;fill-opacity:1"
       id="path1-9" /></g></svg>
