<?xml version="1.0" encoding="UTF-8" standalone="no"?>
<!-- Created with Inkscape (http://www.inkscape.org/) -->

<svg
   width="43.281418mm"
   height="43.293438mm"
   viewBox="0 0 163.58331 163.62875"
   version="1.1"
   id="svg1"
   xml:space="preserve"
   inkscape:version="1.4.2 (f4327f4, 2025-05-13)"
   sodipodi:docname="Tipos.svg"
   xmlns:inkscape="http://www.inkscape.org/namespaces/inkscape"
   xmlns:sodipodi="http://sodipodi.sourceforge.net/DTD/sodipodi-0.dtd"
   xmlns="http://www.w3.org/2000/svg"
   xmlns:svg="http://www.w3.org/2000/svg"><sodipodi:namedview
     id="namedview1"
     pagecolor="#505050"
     bordercolor="#eeeeee"
     borderopacity="1"
     inkscape:showpageshadow="0"
     inkscape:pageopacity="0"
     inkscape:pagecheckerboard="0"
     inkscape:deskcolor="#505050"
     inkscape:document-units="mm"
     inkscape:zoom="0.63374008"
     inkscape:cx="606.71561"
     inkscape:cy="396.85039"
     inkscape:window-width="1366"
     inkscape:window-height="705"
     inkscape:window-x="-8"
     inkscape:window-y="-8"
     inkscape:window-maximized="1"
     inkscape:current-layer="layer1"><inkscape:page
       x="0"
       y="4.8403078e-13"
       width="163.58331"
       height="163.62875"
       id="page2"
       margin="0"
       bleed="0" /></sodipodi:namedview><defs
     id="defs1" /><g
     inkscape:label="Camada 1"
     inkscape:groupmode="layer"
     id="layer1"
     transform="translate(-983.8477,-452.67708)"><path
       d="m 1072.2167,616.13333 c -4.4,0.3222 -11.3,0.1798 -15.3333,-0.3164 -4.0333,-0.4962 -10.0333,-1.6381 -13.3333,-2.5377 -3.3,-0.8995 -10.5104,-3.9734 -16.023,-6.8309 -6.6679,-3.4564 -13.0028,-8.2123 -18.9251,-14.2083 -4.8962,-4.9571 -11.05769,-12.6129 -13.69219,-17.0129 -2.6344,-4.4 -5.9699,-11.8191 -7.4122,-16.4868 -1.4422,-4.6677 -2.9789,-13.3677 -3.4148,-19.3333 -0.5492,-7.5155 -0.1463,-13.9177 1.312,-20.8466 1.1576,-5.5 4.6022,-15.0651 7.6547,-21.2559 4.1558,-8.4283 7.93029,-13.6252 15.02529,-20.6875 5.9934,-5.9658 12.905,-11.2174 18.8086,-14.2912 5.1333,-2.6727 12.9333,-5.9327 17.3333,-7.2444 5.3326,-1.5897 12.4458,-2.3913 21.3334,-2.4041 10.1657,-0.015 15.6752,0.7048 23.191,3.0284 5.4217,1.6761 13.2217,4.9204 17.3333,7.2094 4.1116,2.2891 11.9959,8.6957 17.5205,14.237 5.8589,5.8764 11.801,13.4284 14.2589,18.1218 2.3176,4.4257 5.5117,12.7774 7.098,18.5593 2.3401,8.5298 2.7768,13.0473 2.3157,23.9532 -0.4267,10.0911 -1.4521,15.9253 -4.1147,23.4106 -1.9505,5.4834 -6.3012,14.0017 -9.6682,18.9294 -3.3669,4.9277 -8.5366,11.1412 -11.4881,13.8077 -2.9514,2.6664 -9.0123,7.2046 -13.4685,10.0848 -4.4562,2.8802 -12.6492,6.6524 -18.2067,8.3826 -5.5575,1.7303 -13.7046,3.4096 -18.1046,3.7318 z m 0.099,-34.135 c 4.4544,-0.2346 9.5544,-1.2541 11.3333,-2.2655 2.9606,-1.6834 2.1057,-1.9053 -10.0989,-2.6218 -7.6911,-0.4514 -15.4822,-1.7059 -18.4113,-2.9645 -2.7928,-1.2 -6.6533,-3.421 -8.5787,-4.9355 -1.9254,-1.5145 -4.8322,-4.7132 -6.4596,-7.1081 -1.6274,-2.395 -3.917,-7.5807 -5.088,-11.5238 -1.171,-3.9432 -2.1291,-9.3516 -2.1291,-12.0187 0,-2.6671 0.9258,-7.9667 2.0572,-11.7768 1.1315,-3.8101 3.9206,-9.0496 6.198,-11.6434 2.2774,-2.5938 5.852,-5.601 7.9436,-6.6826 2.0916,-1.0816 6.8025,-2.5354 10.4687,-3.2307 4.2833,-0.8123 9.1567,-0.7917 13.6347,0.058 3.8329,0.7269 9.28,2.8511 12.1047,4.7204 3.0562,2.0225 6.1613,5.6576 7.6685,8.9772 1.5845,3.4899 2.5437,8.6245 2.562,13.7146 0.022,6.2664 -0.6612,9.1608 -2.9753,12.5946 -1.6524,2.4521 -5.0554,5.6562 -7.5622,7.1202 -2.8053,1.6385 -6.9723,2.6619 -10.8381,2.6619 -3.7314,0 -7.7232,-0.9453 -9.8348,-2.3289 -1.9549,-1.2809 -4.7234,-4.2462 -6.1523,-6.5897 -1.4289,-2.3435 -2.6003,-6.1827 -2.603,-8.5315 0,-2.3488 0.6613,-5.7329 1.4756,-7.5202 0.8143,-1.7873 2.9491,-4.0355 4.7439,-4.9961 1.7949,-0.9605 5.4059,-1.7464 8.0245,-1.7464 3.366,0 5.4923,0.9028 7.2561,3.081 1.3722,1.6946 2.4949,3.8755 2.4949,4.8465 0,0.9711 -0.6145,3.3816 -1.3655,5.3569 -1.2473,3.2807 -1.8331,3.5287 -6.7711,2.8663 -5.2573,-0.7051 -5.3423,-0.6549 -3.0946,1.8288 1.3802,1.5251 4.0687,2.5538 6.6744,2.5538 3.1256,0 5.1471,-0.9965 7.1267,-3.5132 1.8042,-2.2936 2.7487,-5.4177 2.721,-9 -0.023,-3.0177 -0.9139,-6.6387 -1.9792,-8.0465 -1.0652,-1.4078 -3.5961,-3.6539 -5.6242,-4.9912 -2.0281,-1.3374 -6.0348,-2.4355 -8.9037,-2.4403 -3.115,0 -7.4176,1.2813 -10.681,3.1938 -3.0534,1.7894 -6.7823,5.5467 -8.4505,8.5149 -1.9033,3.3864 -2.9857,7.5617 -2.9857,11.5171 0,3.477 1.1154,8.3798 2.537,11.1518 1.3953,2.7208 3.9453,6.2597 5.6666,7.8642 1.7214,1.6044 5.8298,4.1413 9.1298,5.6373 3.3,1.4961 8.8275,2.7334 12.2833,2.7495 3.4558,0.016 9.5498,-1.1929 13.5422,-2.6867 4.6949,-1.7565 9.1135,-4.7278 12.509,-8.4115 2.8875,-3.1326 6.313,-8.4789 7.6122,-11.8808 1.7069,-4.4696 2.209,-8.7008 1.8101,-15.2551 -0.3037,-4.9885 -1.6116,-11.2569 -2.9065,-13.9297 -1.2949,-2.6728 -4.4484,-7.3061 -7.0077,-10.2961 -2.9278,-3.4205 -8.4308,-7.3033 -14.8405,-10.4712 -9.3856,-4.6385 -11.0849,-5.0346 -21.5947,-5.0335 -8.8985,10e-4 -12.7908,0.6395 -17.6971,2.9033 -3.4593,1.5961 -9.3008,5.7186 -12.9811,9.1611 -3.6803,3.4425 -8.3499,9.6349 -10.3768,13.7609 -3.2788,6.6747 -3.6852,8.9721 -3.6855,20.8352 -2e-4,11.1432 0.4936,14.3355 3.0061,19.4341 1.6535,3.3554 5.1287,8.5802 7.7226,11.6107 2.7043,3.1593 8.2476,7.2468 12.9937,9.5814 4.5525,2.2393 10.9773,4.634 14.2773,5.3215 3.3,0.6875 9.6446,1.0581 14.099,0.8235 z"
       style="fill:#fe529c;fill-opacity:1"
       id="path1-29" /></g></svg>
