<?xml version="1.0" encoding="UTF-8" standalone="no"?>
<!-- Created with Inkscape (http://www.inkscape.org/) -->

<svg
   width="42.763988mm"
   height="42.676327mm"
   viewBox="0 0 161.62768 161.29636"
   version="1.1"
   id="svg1"
   xml:space="preserve"
   inkscape:version="1.4.2 (f4327f4, 2025-05-13)"
   sodipodi:docname="Tipos.svg"
   xmlns:inkscape="http://www.inkscape.org/namespaces/inkscape"
   xmlns:sodipodi="http://sodipodi.sourceforge.net/DTD/sodipodi-0.dtd"
   xmlns="http://www.w3.org/2000/svg"
   xmlns:svg="http://www.w3.org/2000/svg"><sodipodi:namedview
     id="namedview1"
     pagecolor="#505050"
     bordercolor="#eeeeee"
     borderopacity="1"
     inkscape:showpageshadow="0"
     inkscape:pageopacity="0"
     inkscape:pagecheckerboard="0"
     inkscape:deskcolor="#505050"
     inkscape:document-units="mm"
     inkscape:zoom="0.63374008"
     inkscape:cx="606.71561"
     inkscape:cy="396.85039"
     inkscape:window-width="1366"
     inkscape:window-height="705"
     inkscape:window-x="-8"
     inkscape:window-y="-8"
     inkscape:window-maximized="1"
     inkscape:current-layer="layer1"><inkscape:page
       x="0"
       y="0"
       width="161.62769"
       height="161.29636"
       id="page2"
       margin="0"
       bleed="0" /></sodipodi:namedview><defs
     id="defs1" /><g
     inkscape:label="Camada 1"
     inkscape:groupmode="layer"
     id="layer1"
     transform="translate(-24.009372,-24.506632)"><path
       d="m 107.13999,185.66573 c -7.699998,0.2451 -15.199998,0.153 -16.666668,-0.2046 -1.46666,-0.3576 -7.15073,-2.1913 -12.63126,-4.0749 -5.48053,-1.8837 -13.24958,-5.5262 -17.26455,-8.0945 -4.01497,-2.5684 -10.3309,-7.8057 -14.035403,-11.6384 -3.7045,-3.8328 -8.72781,-10.3132 -11.16291,-14.4008 -2.4351,-4.0877 -5.95347,-11.8331 -7.8186,-17.212 -2.73317,-7.88233 -3.41954,-12.49626 -3.5375,-23.77989 -0.11662,-11.155991 0.48004,-16.031441 2.93712,-24.000001 1.69591,-5.5 4.89418,-13.18498 7.10728,-17.07773 2.2131,-3.89275 7.25821,-10.57126 11.21135,-14.84113 3.95315,-4.26987 10.939103,-10.19099 15.524343,-13.15805 4.58524,-2.96706 12.13449,-6.66099 16.7761,-8.20874 4.64161,-1.54774 12.53509,-3.32837 17.54106,-3.95694 5.005978,-0.62857 13.266108,-0.68573 18.355838,-0.12702 5.08972,0.55871 13.21051,2.33246 18.04618,3.94167 4.83568,1.60921 12.27787,5.18802 16.53821,7.95292 4.26035,2.76489 11.43047,8.97968 15.93361,13.81064 4.58747,4.92141 10.26313,12.93242 12.90799,18.21919 2.59626,5.18961 5.74423,14.03729 6.99551,19.66153 1.65251,7.42774 2.06368,13.357791 1.50262,21.671441 -0.42483,6.29506 -1.98011,14.91073 -3.45616,19.14591 -1.47606,4.2353 -4.53422,11.1723 -6.79593,15.4157 -2.2617,4.2434 -6.76566,10.7486 -10.00881,14.456 -3.24314,3.7074 -9.96975,9.5131 -14.94802,12.9017 -4.97827,3.3885 -13.5514,7.734 -19.0514,9.6566 -7.75008,2.7093 -13.14988,3.596 -24,3.9414 z m -54.871768,-48.7384 c 4.75053,0 8.37249,-0.6618 9.12256,-1.6667 0.68418,-0.9167 5.61426,-13.48236 10.95572,-27.92377 5.34147,-14.441411 9.31974,-26.891411 8.8406,-27.666671 -0.47913,-0.77525 -4.36227,-1.40955 -8.6292,-1.40955 -4.59044,0 -8.31471,0.6805 -9.1214,1.66667 -0.74984,0.91666 -3.48598,7.36666 -6.0803,14.33333 -2.59432,6.966671 -6.87211,18.637491 -9.506193,25.935171 -2.63409,7.29767 -4.49026,14.04762 -4.12482,15.00002 0.44109,1.1494 3.31282,1.7315 8.543033,1.7315 z m 65.538438,0 c 38.45668,0 44.18423,-0.262 44.87131,-2.0525 0.43319,-1.1289 -4.76687,-17.1789 -11.55569,-35.666691 -6.78882,-18.48779 -12.94878,-34.38011 -13.6888,-35.31627 -1.0035,-1.26947 -6.12584,-1.60837 -20.15282,-1.33333 l -18.807328,0.36877 -13.11345,35.07612 c -7.21239,19.291861 -12.78122,35.941901 -12.37517,37.000001 0.62265,1.6226 7.64165,1.9239 44.821948,1.9239 z"
       style="fill:#e6bb61;fill-opacity:1"
       id="path1"
       inkscape:export-filename="path1.svg"
       inkscape:export-xdpi="96"
       inkscape:export-ydpi="96" /></g></svg>
