<?xml version="1.0" encoding="UTF-8" standalone="no"?>
<!-- Created with Inkscape (http://www.inkscape.org/) -->

<svg
   width="43.092472mm"
   height="43.207554mm"
   viewBox="0 0 162.86919 163.30415"
   version="1.1"
   id="svg1"
   xml:space="preserve"
   inkscape:version="1.4.2 (f4327f4, 2025-05-13)"
   sodipodi:docname="Tipos.svg"
   xmlns:inkscape="http://www.inkscape.org/namespaces/inkscape"
   xmlns:sodipodi="http://sodipodi.sourceforge.net/DTD/sodipodi-0.dtd"
   xmlns="http://www.w3.org/2000/svg"
   xmlns:svg="http://www.w3.org/2000/svg"><sodipodi:namedview
     id="namedview1"
     pagecolor="#505050"
     bordercolor="#eeeeee"
     borderopacity="1"
     inkscape:showpageshadow="0"
     inkscape:pageopacity="0"
     inkscape:pagecheckerboard="0"
     inkscape:deskcolor="#505050"
     inkscape:document-units="mm"
     inkscape:zoom="0.63374008"
     inkscape:cx="606.71561"
     inkscape:cy="396.85039"
     inkscape:window-width="1366"
     inkscape:window-height="705"
     inkscape:window-x="-8"
     inkscape:window-y="-8"
     inkscape:window-maximized="1"
     inkscape:current-layer="layer1"><inkscape:page
       x="0"
       y="-7.7128304e-15"
       width="162.86919"
       height="163.30415"
       id="page2"
       margin="0"
       bleed="0" /></sodipodi:namedview><defs
     id="defs1" /><g
     inkscape:label="Camada 1"
     inkscape:groupmode="layer"
     id="layer1"
     transform="translate(-510.43536,6.9037403)"><path
       d="m 596.82626,156.22533 c -5.5,0.3686 -13.45814,0.1359 -17.68476,-0.5171 -4.22662,-0.653 -11.29389,-2.645 -15.70505,-4.4268 -4.41116,-1.7817 -11.36342,-5.2523 -15.44947,-7.7123 -4.08605,-2.4601 -10.88773,-8.1582 -15.11485,-12.6625 -4.22713,-4.50424 -9.51305,-11.40424 -11.7465,-15.3333 -2.23345,-3.92905 -5.33146,-11.04373 -6.88445,-15.810401 -1.553,-4.76667 -3.16629,-13.76667 -3.58508,-20 -0.52864,-7.86822 -0.11813,-14.35244 1.34264,-21.20791 1.15725,-5.43102 3.89085,-13.69278 6.07465,-18.35946 2.1838,-4.66668 6.6447,-11.96014 9.91311,-16.20768 3.26841,-4.24754 9.1579,-10.20342 13.08776,-13.23528 3.92986,-3.0318697 11.03173,-7.3217197 15.78194,-9.5330097 4.7502,-2.21128998 12.21279,-4.94365 16.58353,-6.07193 4.37074,-1.12827 12.79468,-2.0514 18.71987,-2.0514 5.92519,0 14.34913,0.90902 18.71987,2.02005 4.37074,1.11102 12.36495,4.17748002 17.76492,6.81435 6.40623,3.12825 13.12475,7.94257 19.33333,13.8537897 5.23337,4.98271 11.50757,12.36529 13.94267,16.40574 2.4351,4.04045 5.97035,11.74723 7.85611,17.12617 2.84463,8.11402 3.44478,12.27819 3.52327,24.44657 0.0678,10.51346 -0.58604,16.93205 -2.30904,22.66667 -1.322,4.400001 -4.59044,12.200001 -7.26319,17.333331 -3.08335,5.92193 -8.27857,12.75236 -14.21374,18.6875 -5.98629,5.9863 -12.7146,11.0927 -18.68754,14.1828 -5.13333,2.6557 -12.63333,5.7495 -16.66666,6.8752 -4.03334,1.1257 -11.83334,2.3483 -17.33334,2.7169 z M 582.36261,121.8553 c 5.8811,-0.38592 11.07577,-1.69995 15.41708,-3.89986 3.60108,-1.8248 7.28886,-4.21121 8.19507,-5.30313 1.11606,-1.34477 1.19658,-2.26409 0.24958,-2.84937 -0.76894,-0.47523 -1.39808,-1.64507 -1.39808,-2.59965 0,-1.08602 2.46824,-2.02791 6.59499,-2.51666 3.62724,-0.4296 8.57724,-1.78552 11,-3.01318 2.42276,-1.22765 5.45501,-3.152731 6.73835,-4.277961 1.28333,-1.12522 2.33333,-2.55287 2.33333,-3.17254 0,-0.61968 -7.2,-1.12669 -16,-1.12669 -13.33333,0 -16,-0.33333 -16,-2 0,-1.56365 1.81812,-2.00162 8.33333,-2.00743 4.58334,-0.004 10.50392,-0.61037 13.15685,-1.34728 2.65293,-0.73691 6.79723,-2.68356 9.20956,-4.32589 2.41233,-1.64234 6.19448,-5.23334 8.40476,-7.98002 2.21029,-2.74667 3.60282,-5.40983 3.09452,-5.91814 -0.50831,-0.5083 -3.76103,0.45527 -7.22827,2.14128 -5.6193,2.73249 -8.10436,3.04754 -22.87738,2.90041 -9.11531,-0.0908 -16.82539,-0.41717 -17.13351,-0.72529 -0.30812,-0.30812 -0.16473,-1.20014 0.31865,-1.98226 0.48338,-0.78213 4.89346,-1.42539 9.80018,-1.42948 4.90672,-0.004 11.32131,-0.64781 14.25464,-1.43049 2.93334,-0.78269 8.13371,-3.29876 11.55639,-5.59128 3.42269,-2.29252 8.34131,-7.38474 10.93029,-11.31605 2.67161,-4.0568 5.09513,-9.73459 5.60423,-13.12955 0.49336,-3.28994 0.56414,-6.31459 0.1573,-6.72144 -0.40685,-0.40685 -2.76143,0.80231 -5.2324,2.68701 -2.47097,1.8847 -6.86038,4.45016 -9.75424,5.70102 -4.19192,1.81195 -11.22484,2.44007 -34.5949,3.08972 -26.58235,0.73894 -29.84759,1.086 -34.81675,3.70057 -3.01588,1.58683 -8.26899,5.98338 -11.67358,9.77009 -4.24287,4.7191 -6.86862,9.21878 -8.34689,14.30388 -1.39594,4.80183 -1.91644,10.06907 -1.47553,14.93154 0.38116,4.20346 2.18736,10.48483 4.10054,14.260311 1.88063,3.71124 6.12447,9.12886 9.43075,12.03917 3.30628,2.91031 8.88468,6.28804 12.39644,7.50607 4.41024,1.52966 9.12826,2.03459 15.2547,1.63257 z"
       style="fill:#a990ff;fill-opacity:1"
       id="path1-60" /></g></svg>
