<?xml version="1.0" encoding="UTF-8" standalone="no"?>
<!-- Created with Inkscape (http://www.inkscape.org/) -->

<svg
   width="43.003315mm"
   height="42.959175mm"
   viewBox="0 0 162.53222 162.36539"
   version="1.1"
   id="svg1"
   xml:space="preserve"
   inkscape:version="1.4.2 (f4327f4, 2025-05-13)"
   sodipodi:docname="Tipos.svg"
   xmlns:inkscape="http://www.inkscape.org/namespaces/inkscape"
   xmlns:sodipodi="http://sodipodi.sourceforge.net/DTD/sodipodi-0.dtd"
   xmlns="http://www.w3.org/2000/svg"
   xmlns:svg="http://www.w3.org/2000/svg"><sodipodi:namedview
     id="namedview1"
     pagecolor="#505050"
     bordercolor="#eeeeee"
     borderopacity="1"
     inkscape:showpageshadow="0"
     inkscape:pageopacity="0"
     inkscape:pagecheckerboard="0"
     inkscape:deskcolor="#505050"
     inkscape:document-units="mm"
     inkscape:zoom="0.63374008"
     inkscape:cx="606.71561"
     inkscape:cy="396.85039"
     inkscape:window-width="1366"
     inkscape:window-height="705"
     inkscape:window-x="-8"
     inkscape:window-y="-8"
     inkscape:window-maximized="1"
     inkscape:current-layer="layer1"><inkscape:page
       x="0"
       y="0"
       width="162.53223"
       height="162.36539"
       id="page2"
       margin="0"
       bleed="0" /></sodipodi:namedview><defs
     id="defs1" /><g
     inkscape:label="Camada 1"
     inkscape:groupmode="layer"
     id="layer1"
     transform="translate(-24.251796,-246.36521)"><path
       d="m 112.11734,408.54908 c -4.76665,0.3452 -12.56665,0.1832 -17.33332,-0.36 -4.76667,-0.5432 -12.68457,-2.5067 -17.59534,-4.3634 -4.910771,-1.8567 -12.110771,-5.418 -16.000001,-7.9139 -3.88924,-2.496 -10.77485,-8.5072 -15.30136,-13.3583 -4.92031,-5.2732 -10.14282,-12.7325 -12.98641,-18.5485 -2.616,-5.3506 -5.73464,-13.6245 -6.93029,-18.3866 -1.57717,-6.2814 -2.00176,-12.3206 -1.54676,-22 0.4561,-9.7025 1.57103,-16.0261 4.08739,-23.1829 1.90312,-5.4126 5.61183,-13.0816 8.24158,-17.0423 2.62975,-3.9607 6.93316,-9.5831 9.56312,-12.4941 2.62996,-2.9111 8.76117,-7.9225 13.62491,-11.1364 4.86373,-3.214 13.34315,-7.5196 18.843151,-9.568 8.81159,-3.2818 11.90147,-3.7359 26.00001,-3.8212 13.4869,-0.082 17.54464,0.4091 25.83426,3.1243 5.40885,1.7716 14.11827,6.0177 19.35425,9.4358 5.23599,3.418 12.7044,9.7686 16.59648,14.1122 3.92043,4.3753 9.3581,12.6548 12.19229,18.5642 2.81369,5.8667 5.76986,13.8462 6.56926,17.7323 0.7994,3.8861 1.45345,12.3681 1.45345,18.8489 0,8.3736 -0.89679,14.8796 -3.09909,22.4831 -1.7045,5.8849 -5.15111,14.0856 -7.65913,18.2238 -2.50802,4.1382 -7.64438,10.7598 -11.41414,14.7145 -3.76975,3.9548 -10.6261,9.6285 -15.23632,12.6082 -4.61022,2.9798 -12.92927,6.8314 -18.48677,8.5592 -5.5575,1.7278 -14.00455,3.4239 -18.77122,3.7691 z m -7.24199,-28.3927 c 2.98356,0.066 8.62228,-0.8293 12.53048,-1.9899 5.25723,-1.5613 8.90118,-3.9056 14.00695,-9.0114 4.55675,-4.5567 7.66038,-9.1294 9.13617,-13.4606 1.22928,-3.6078 2.23506,-9.4298 2.23506,-12.9379 0,-3.5081 -1.39187,-10.7614 -3.09305,-16.1184 -1.70118,-5.3571 -5.56196,-13.9299 -8.57951,-19.0508 -3.01755,-5.1209 -9.42717,-14.2607 -14.2436,-20.3107 -4.81643,-6.05 -9.57354,-11 -10.57136,-11 -0.99782,0 -4.58545,2.9626 -7.97251,6.5837 -3.38706,3.621 -9.51819,11.7382 -13.62475,18.0382 -4.10656,6.3 -8.860251,14.8874 -10.563771,19.083 -1.70351,4.1956 -3.7365,11.0913 -4.51775,15.3238 -0.96272,5.2156 -0.99643,9.9418 -0.10458,14.6666 0.72372,3.8343 2.97322,9.6713 4.99889,12.9713 2.025671,3.3 6.584381,7.9507 10.130461,10.3349 3.54609,2.3841 8.32861,4.88 10.62782,5.5464 2.29921,0.6664 6.62148,1.2657 9.60505,1.3318 z m 0.92659,-12.1814 c -6.41502,0.4488 -8.43531,0.023 -12.22866,-2.5803 -2.49924,-1.7149 -5.73302,-4.7233 -7.18618,-6.6854 -1.47044,-1.9854 -2.88017,-6.42 -3.17894,-10 -0.31192,-3.7376 0.18504,-7.785 1.18618,-9.6607 0.94766,-1.7754 2.40134,-3.4515 3.23041,-3.7247 0.8351,-0.2751 1.89948,1.5934 2.38652,4.1895 0.48352,2.5774 2.8132,6.7369 5.17707,9.2433 2.40399,2.549 6.8199,5.3128 10.021,6.2718 5.13051,1.5372 6.40498,1.4266 12.30935,-1.0679 3.77924,-1.5967 6.91624,-2.2488 7.36047,-1.53 0.4258,0.689 -0.32141,3.1235 -1.66048,5.41 -1.33907,2.2865 -4.07661,5.3812 -6.08342,6.877 -2.36612,1.7636 -6.35007,2.9087 -11.33332,3.2574 z"
       style="fill:#717ffe;fill-opacity:1"
       id="path1-8" /></g></svg>
